<?xml version="1.0" encoding="utf-8" standalone="no"?>
<!DOCTYPE svg PUBLIC "-//W3C//DTD SVG 1.1//EN"
  "http://www.w3.org/Graphics/SVG/1.1/DTD/svg11.dtd">
<!-- Created with matplotlib (https://matplotlib.org/) -->
<svg height="314.7395pt" version="1.1" viewBox="0 0 422.33375 314.7395" width="422.33375pt" xmlns="http://www.w3.org/2000/svg" xmlns:xlink="http://www.w3.org/1999/xlink">
 <defs>
  <style type="text/css">
*{stroke-linecap:butt;stroke-linejoin:round;}
  </style>
 </defs>
 <g id="figure_1">
  <g id="patch_1">
   <path d="M 0 314.7395 
L 422.33375 314.7395 
L 422.33375 0 
L 0 0 
z
" style="fill:#ffffff;"/>
  </g>
  <g id="axes_1">
   <g id="patch_2">
    <path d="M 58.01375 273.312 
L 415.13375 273.312 
L 415.13375 7.2 
L 58.01375 7.2 
z
" style="fill:#ffffff;"/>
   </g>
   <g id="PolyCollection_1">
    <defs>
     <path d="M 147.29375 -307.5395 
L 147.29375 -41.4275 
L 236.57375 -41.4275 
L 236.57375 -307.5395 
L 236.57375 -307.5395 
L 147.29375 -307.5395 
z
" id="m07ab6f7dcc" style="stroke:#f1f1f1;"/>
    </defs>
    <g clip-path="url(#pe95b66070d)">
     <use style="fill:#f1f1f1;stroke:#f1f1f1;" x="0" xlink:href="#m07ab6f7dcc" y="314.7395"/>
    </g>
   </g>
   <g id="PolyCollection_2">
    <defs>
     <path d="M 325.85375 -307.5395 
L 325.85375 -41.4275 
L 415.13375 -41.4275 
L 415.13375 -307.5395 
L 415.13375 -307.5395 
L 325.85375 -307.5395 
z
" id="mb7aa0e68a4" style="stroke:#f1f1f1;"/>
    </defs>
    <g clip-path="url(#pe95b66070d)">
     <use style="fill:#f1f1f1;stroke:#f1f1f1;" x="0" xlink:href="#mb7aa0e68a4" y="314.7395"/>
    </g>
   </g>
   <g id="PathCollection_1">
    <defs>
     <path d="M -3.872983 3.872983 
L 3.872983 -3.872983 
M -3.872983 -3.872983 
L 3.872983 3.872983 
" id="mea2bf6bb61" style="stroke:#fe817d;stroke-width:1.5;"/>
    </defs>
    <g clip-path="url(#pe95b66070d)">
     <use style="fill:#fe817d;stroke:#fe817d;stroke-width:1.5;" x="80.33375" xlink:href="#mea2bf6bb61" y="263.456"/>
    </g>
   </g>
   <g id="PolyCollection_3">
    <defs>
     <path d="M 127.819308 -90.504467 
L 122.128192 -90.504467 
L 121.947739 -90.817265 
L 121.761218 -91.130063 
L 121.568372 -91.442861 
L 121.368883 -91.755659 
L 121.162376 -92.068457 
L 120.948418 -92.381256 
L 120.726529 -92.694054 
L 120.496188 -93.006852 
L 120.256847 -93.31965 
L 120.007945 -93.632448 
L 119.748932 -93.945246 
L 119.479284 -94.258044 
L 119.198538 -94.570842 
L 118.906316 -94.88364 
L 118.602359 -95.196438 
L 118.286562 -95.509236 
L 117.959009 -95.822034 
L 117.620009 -96.134832 
L 117.270133 -96.44763 
L 116.910242 -96.760428 
L 116.54152 -97.073226 
L 116.165497 -97.386024 
L 115.78406 -97.698822 
L 115.399468 -98.01162 
L 115.014341 -98.324418 
L 114.631656 -98.637216 
L 114.254713 -98.950014 
L 113.887104 -99.262813 
L 113.532663 -99.575611 
L 113.195403 -99.888409 
L 112.879447 -100.201207 
L 112.588948 -100.514005 
L 112.328003 -100.826803 
L 112.100556 -101.139601 
L 111.910312 -101.452399 
L 111.760635 -101.765197 
L 111.654463 -102.077995 
L 111.594221 -102.390793 
L 111.58175 -102.703591 
L 111.618237 -103.016389 
L 111.70417 -103.329187 
L 111.839304 -103.641985 
L 112.022639 -103.954783 
L 112.252426 -104.267581 
L 112.526183 -104.580379 
L 112.840728 -104.893177 
L 113.192237 -105.205975 
L 113.576307 -105.518773 
L 113.988039 -105.831571 
L 114.422134 -106.14437 
L 114.872987 -106.457168 
L 115.334803 -106.769966 
L 115.801702 -107.082764 
L 116.267834 -107.395562 
L 116.727487 -107.70836 
L 117.175196 -108.021158 
L 117.605835 -108.333956 
L 118.014715 -108.646754 
L 118.397654 -108.959552 
L 118.75105 -109.27235 
L 119.071932 -109.585148 
L 119.358001 -109.897946 
L 119.607653 -110.210744 
L 119.819993 -110.523542 
L 119.994826 -110.83634 
L 120.132647 -111.149138 
L 120.234602 -111.461936 
L 120.302452 -111.774734 
L 120.338515 -112.087532 
L 120.345603 -112.40033 
L 120.326951 -112.713128 
L 120.286139 -113.025927 
L 120.227005 -113.338725 
L 120.153565 -113.651523 
L 120.069921 -113.964321 
L 119.980177 -114.277119 
L 119.888357 -114.589917 
L 119.798323 -114.902715 
L 119.713709 -115.215513 
L 119.637852 -115.528311 
L 119.573738 -115.841109 
L 119.523962 -116.153907 
L 119.49069 -116.466705 
L 119.475641 -116.779503 
L 119.480075 -117.092301 
L 119.504794 -117.405099 
L 119.550155 -117.717897 
L 119.616093 -118.030695 
L 119.702147 -118.343493 
L 119.807502 -118.656291 
L 119.931029 -118.969089 
L 120.071333 -119.281887 
L 120.226803 -119.594685 
L 120.395661 -119.907484 
L 120.576013 -120.220282 
L 120.765895 -120.53308 
L 120.96332 -120.845878 
L 121.166316 -121.158676 
L 121.372961 -121.471474 
L 128.574539 -121.471474 
L 128.574539 -121.471474 
L 128.781184 -121.158676 
L 128.98418 -120.845878 
L 129.181605 -120.53308 
L 129.371487 -120.220282 
L 129.551839 -119.907484 
L 129.720697 -119.594685 
L 129.876167 -119.281887 
L 130.016471 -118.969089 
L 130.139998 -118.656291 
L 130.245353 -118.343493 
L 130.331407 -118.030695 
L 130.397345 -117.717897 
L 130.442706 -117.405099 
L 130.467425 -117.092301 
L 130.471859 -116.779503 
L 130.45681 -116.466705 
L 130.423538 -116.153907 
L 130.373762 -115.841109 
L 130.309648 -115.528311 
L 130.233791 -115.215513 
L 130.149177 -114.902715 
L 130.059143 -114.589917 
L 129.967323 -114.277119 
L 129.877579 -113.964321 
L 129.793935 -113.651523 
L 129.720495 -113.338725 
L 129.661361 -113.025927 
L 129.620549 -112.713128 
L 129.601897 -112.40033 
L 129.608985 -112.087532 
L 129.645048 -111.774734 
L 129.712898 -111.461936 
L 129.814853 -111.149138 
L 129.952674 -110.83634 
L 130.127507 -110.523542 
L 130.339847 -110.210744 
L 130.589499 -109.897946 
L 130.875568 -109.585148 
L 131.19645 -109.27235 
L 131.549846 -108.959552 
L 131.932785 -108.646754 
L 132.341665 -108.333956 
L 132.772304 -108.021158 
L 133.220013 -107.70836 
L 133.679666 -107.395562 
L 134.145798 -107.082764 
L 134.612697 -106.769966 
L 135.074513 -106.457168 
L 135.525366 -106.14437 
L 135.959461 -105.831571 
L 136.371193 -105.518773 
L 136.755263 -105.205975 
L 137.106772 -104.893177 
L 137.421317 -104.580379 
L 137.695074 -104.267581 
L 137.924861 -103.954783 
L 138.108196 -103.641985 
L 138.24333 -103.329187 
L 138.329263 -103.016389 
L 138.36575 -102.703591 
L 138.353279 -102.390793 
L 138.293037 -102.077995 
L 138.186865 -101.765197 
L 138.037188 -101.452399 
L 137.846944 -101.139601 
L 137.619497 -100.826803 
L 137.358552 -100.514005 
L 137.068053 -100.201207 
L 136.752097 -99.888409 
L 136.414837 -99.575611 
L 136.060396 -99.262813 
L 135.692787 -98.950014 
L 135.315844 -98.637216 
L 134.933159 -98.324418 
L 134.548032 -98.01162 
L 134.16344 -97.698822 
L 133.782003 -97.386024 
L 133.40598 -97.073226 
L 133.037258 -96.760428 
L 132.677367 -96.44763 
L 132.327491 -96.134832 
L 131.988491 -95.822034 
L 131.660938 -95.509236 
L 131.345141 -95.196438 
L 131.041184 -94.88364 
L 130.748962 -94.570842 
L 130.468216 -94.258044 
L 130.198568 -93.945246 
L 129.939555 -93.632448 
L 129.690653 -93.31965 
L 129.451312 -93.006852 
L 129.220971 -92.694054 
L 128.999082 -92.381256 
L 128.785124 -92.068457 
L 128.578617 -91.755659 
L 128.379128 -91.442861 
L 128.186282 -91.130063 
L 127.999761 -90.817265 
L 127.819308 -90.504467 
z
" id="m007ca8f1c5" style="stroke:#81b8df;"/>
    </defs>
    <g clip-path="url(#pe95b66070d)">
     <use style="fill:#b1ccdf;stroke:#81b8df;" x="0" xlink:href="#m007ca8f1c5" y="314.7395"/>
    </g>
   </g>
   <g id="PolyCollection_4">
    <defs>
     <path d="M 183.00575 -60.834951 
L 156.22175 -60.834951 
L 156.229377 -61.072451 
L 156.269018 -61.309952 
L 156.34013 -61.547452 
L 156.441908 -61.784952 
L 156.573294 -62.022453 
L 156.732988 -62.259953 
L 156.919458 -62.497453 
L 157.130959 -62.734954 
L 157.36555 -62.972454 
L 157.621115 -63.209954 
L 157.895383 -63.447455 
L 158.185958 -63.684955 
L 158.490335 -63.922456 
L 158.805935 -64.159956 
L 159.130125 -64.397456 
L 159.460246 -64.634957 
L 159.793642 -64.872457 
L 160.127682 -65.109957 
L 160.459787 -65.347458 
L 160.787453 -65.584958 
L 161.108276 -65.822458 
L 161.419967 -66.059959 
L 161.720378 -66.297459 
L 162.007513 -66.534959 
L 162.27955 -66.77246 
L 162.534846 -67.00996 
L 162.771955 -67.247461 
L 162.989632 -67.484961 
L 163.186842 -67.722461 
L 163.362763 -67.959962 
L 163.516789 -68.197462 
L 163.648528 -68.434962 
L 163.757804 -68.672463 
L 163.844647 -68.909963 
L 163.909293 -69.147463 
L 163.952174 -69.384964 
L 163.973907 -69.622464 
L 163.975288 -69.859964 
L 163.957274 -70.097465 
L 163.920975 -70.334965 
L 163.867637 -70.572466 
L 163.798627 -70.809966 
L 163.715415 -71.047466 
L 163.619563 -71.284967 
L 163.512701 -71.522467 
L 163.396511 -71.759967 
L 163.272712 -71.997468 
L 163.14304 -72.234968 
L 163.009228 -72.472468 
L 162.872994 -72.709969 
L 162.736018 -72.947469 
L 162.59993 -73.184969 
L 162.466292 -73.42247 
L 162.336587 -73.65997 
L 162.212201 -73.897471 
L 162.094415 -74.134971 
L 161.984394 -74.372471 
L 161.883176 -74.609972 
L 161.791669 -74.847472 
L 161.710642 -75.084972 
L 161.640724 -75.322473 
L 161.5824 -75.559973 
L 161.536017 -75.797473 
L 161.50178 -76.034974 
L 161.47976 -76.272474 
L 161.469898 -76.509975 
L 161.472015 -76.747475 
L 161.485818 -76.984975 
L 161.510914 -77.222476 
L 161.546816 -77.459976 
L 161.592963 -77.697476 
L 161.648725 -77.934977 
L 161.713422 -78.172477 
L 161.786335 -78.409977 
L 161.866722 -78.647478 
L 161.953829 -78.884978 
L 162.046903 -79.122478 
L 162.145207 -79.359979 
L 162.248026 -79.597479 
L 162.354683 -79.83498 
L 162.464543 -80.07248 
L 162.577023 -80.30998 
L 162.691598 -80.547481 
L 162.807803 -80.784981 
L 162.92524 -81.022481 
L 163.043575 -81.259982 
L 163.162541 -81.497482 
L 163.281935 -81.734982 
L 163.401616 -81.972483 
L 163.5215 -82.209983 
L 163.641555 -82.447483 
L 163.761796 -82.684984 
L 163.882277 -82.922484 
L 164.003084 -83.159985 
L 164.124328 -83.397485 
L 164.246136 -83.634985 
L 164.368646 -83.872486 
L 164.491994 -84.109986 
L 164.616314 -84.347486 
L 174.611186 -84.347486 
L 174.611186 -84.347486 
L 174.735506 -84.109986 
L 174.858854 -83.872486 
L 174.981364 -83.634985 
L 175.103172 -83.397485 
L 175.224416 -83.159985 
L 175.345223 -82.922484 
L 175.465704 -82.684984 
L 175.585945 -82.447483 
L 175.706 -82.209983 
L 175.825884 -81.972483 
L 175.945565 -81.734982 
L 176.064959 -81.497482 
L 176.183925 -81.259982 
L 176.30226 -81.022481 
L 176.419697 -80.784981 
L 176.535902 -80.547481 
L 176.650477 -80.30998 
L 176.762957 -80.07248 
L 176.872817 -79.83498 
L 176.979474 -79.597479 
L 177.082293 -79.359979 
L 177.180597 -79.122478 
L 177.273671 -78.884978 
L 177.360778 -78.647478 
L 177.441165 -78.409977 
L 177.514078 -78.172477 
L 177.578775 -77.934977 
L 177.634537 -77.697476 
L 177.680684 -77.459976 
L 177.716586 -77.222476 
L 177.741682 -76.984975 
L 177.755485 -76.747475 
L 177.757602 -76.509975 
L 177.74774 -76.272474 
L 177.72572 -76.034974 
L 177.691483 -75.797473 
L 177.6451 -75.559973 
L 177.586776 -75.322473 
L 177.516858 -75.084972 
L 177.435831 -74.847472 
L 177.344324 -74.609972 
L 177.243106 -74.372471 
L 177.133085 -74.134971 
L 177.015299 -73.897471 
L 176.890913 -73.65997 
L 176.761208 -73.42247 
L 176.62757 -73.184969 
L 176.491482 -72.947469 
L 176.354506 -72.709969 
L 176.218272 -72.472468 
L 176.08446 -72.234968 
L 175.954788 -71.997468 
L 175.830989 -71.759967 
L 175.714799 -71.522467 
L 175.607937 -71.284967 
L 175.512085 -71.047466 
L 175.428873 -70.809966 
L 175.359863 -70.572466 
L 175.306525 -70.334965 
L 175.270226 -70.097465 
L 175.252212 -69.859964 
L 175.253593 -69.622464 
L 175.275326 -69.384964 
L 175.318207 -69.147463 
L 175.382853 -68.909963 
L 175.469696 -68.672463 
L 175.578972 -68.434962 
L 175.710711 -68.197462 
L 175.864737 -67.959962 
L 176.040658 -67.722461 
L 176.237868 -67.484961 
L 176.455545 -67.247461 
L 176.692654 -67.00996 
L 176.94795 -66.77246 
L 177.219987 -66.534959 
L 177.507122 -66.297459 
L 177.807533 -66.059959 
L 178.119224 -65.822458 
L 178.440047 -65.584958 
L 178.767713 -65.347458 
L 179.099818 -65.109957 
L 179.433858 -64.872457 
L 179.767254 -64.634957 
L 180.097375 -64.397456 
L 180.421565 -64.159956 
L 180.737165 -63.922456 
L 181.041542 -63.684955 
L 181.332117 -63.447455 
L 181.606385 -63.209954 
L 181.86195 -62.972454 
L 182.096541 -62.734954 
L 182.308042 -62.497453 
L 182.494512 -62.259953 
L 182.654206 -62.022453 
L 182.785592 -61.784952 
L 182.88737 -61.547452 
L 182.958482 -61.309952 
L 182.998123 -61.072451 
L 183.00575 -60.834951 
z
" id="md56b67a0ea" style="stroke:#fe817d;"/>
    </defs>
    <g clip-path="url(#pe95b66070d)">
     <use style="fill:#fcbbae;stroke:#fe817d;" x="0" xlink:href="#md56b67a0ea" y="314.7395"/>
    </g>
   </g>
   <g id="PolyCollection_5">
    <defs>
     <path d="M 217.503593 -142.775657 
L 211.003907 -142.775657 
L 210.875458 -142.918336 
L 210.748255 -143.061015 
L 210.621657 -143.203694 
L 210.494855 -143.346373 
L 210.366894 -143.489052 
L 210.236703 -143.631732 
L 210.103128 -143.774411 
L 209.96497 -143.91709 
L 209.82103 -144.059769 
L 209.670154 -144.202448 
L 209.511279 -144.345127 
L 209.343475 -144.487806 
L 209.165991 -144.630485 
L 208.978285 -144.773165 
L 208.780053 -144.915844 
L 208.571255 -145.058523 
L 208.352118 -145.201202 
L 208.123142 -145.343881 
L 207.885087 -145.48656 
L 207.638955 -145.629239 
L 207.385956 -145.771918 
L 207.127474 -145.914598 
L 206.865019 -146.057277 
L 206.600176 -146.199956 
L 206.334551 -146.342635 
L 206.06972 -146.485314 
L 205.807174 -146.627993 
L 205.548271 -146.770672 
L 205.294199 -146.913352 
L 205.045935 -147.056031 
L 204.804233 -147.19871 
L 204.569601 -147.341389 
L 204.342311 -147.484068 
L 204.122405 -147.626747 
L 203.909717 -147.769426 
L 203.703913 -147.912105 
L 203.504524 -148.054785 
L 203.311001 -148.197464 
L 203.122765 -148.340143 
L 202.939262 -148.482822 
L 202.760017 -148.625501 
L 202.584687 -148.76818 
L 202.413104 -148.910859 
L 202.245314 -149.053538 
L 202.081607 -149.196218 
L 201.922535 -149.338897 
L 201.768916 -149.481576 
L 201.621832 -149.624255 
L 201.48261 -149.766934 
L 201.352794 -149.909613 
L 201.234108 -150.052292 
L 201.128407 -150.194971 
L 201.037626 -150.337651 
L 200.963717 -150.48033 
L 200.908591 -150.623009 
L 200.874055 -150.765688 
L 200.86175 -150.908367 
L 200.873095 -151.051046 
L 200.909236 -151.193725 
L 200.970999 -151.336404 
L 201.058858 -151.479084 
L 201.172904 -151.621763 
L 201.312836 -151.764442 
L 201.477949 -151.907121 
L 201.667145 -152.0498 
L 201.878947 -152.192479 
L 202.111531 -152.335158 
L 202.362755 -152.477837 
L 202.630213 -152.620517 
L 202.911281 -152.763196 
L 203.203179 -152.905875 
L 203.50303 -153.048554 
L 203.80793 -153.191233 
L 204.115007 -153.333912 
L 204.421491 -153.476591 
L 204.724773 -153.61927 
L 205.022461 -153.76195 
L 205.312435 -153.904629 
L 205.592886 -154.047308 
L 205.862352 -154.189987 
L 206.119744 -154.332666 
L 206.364357 -154.475345 
L 206.595879 -154.618024 
L 206.814376 -154.760704 
L 207.020282 -154.903383 
L 207.214362 -155.046062 
L 207.397684 -155.188741 
L 207.571564 -155.33142 
L 207.737524 -155.474099 
L 207.897228 -155.616778 
L 208.052425 -155.759457 
L 208.204894 -155.902137 
L 208.356377 -156.044816 
L 208.508528 -156.187495 
L 208.662861 -156.330174 
L 208.820705 -156.472853 
L 208.983165 -156.615532 
L 209.151095 -156.758211 
L 209.325078 -156.90089 
L 219.182422 -156.90089 
L 219.182422 -156.90089 
L 219.356405 -156.758211 
L 219.524335 -156.615532 
L 219.686795 -156.472853 
L 219.844639 -156.330174 
L 219.998972 -156.187495 
L 220.151123 -156.044816 
L 220.302606 -155.902137 
L 220.455075 -155.759457 
L 220.610272 -155.616778 
L 220.769976 -155.474099 
L 220.935936 -155.33142 
L 221.109816 -155.188741 
L 221.293138 -155.046062 
L 221.487218 -154.903383 
L 221.693124 -154.760704 
L 221.911621 -154.618024 
L 222.143143 -154.475345 
L 222.387756 -154.332666 
L 222.645148 -154.189987 
L 222.914614 -154.047308 
L 223.195065 -153.904629 
L 223.485039 -153.76195 
L 223.782727 -153.61927 
L 224.086009 -153.476591 
L 224.392493 -153.333912 
L 224.69957 -153.191233 
L 225.00447 -153.048554 
L 225.304321 -152.905875 
L 225.596219 -152.763196 
L 225.877287 -152.620517 
L 226.144745 -152.477837 
L 226.395969 -152.335158 
L 226.628553 -152.192479 
L 226.840355 -152.0498 
L 227.029551 -151.907121 
L 227.194664 -151.764442 
L 227.334596 -151.621763 
L 227.448642 -151.479084 
L 227.536501 -151.336404 
L 227.598264 -151.193725 
L 227.634405 -151.051046 
L 227.64575 -150.908367 
L 227.633445 -150.765688 
L 227.598909 -150.623009 
L 227.543783 -150.48033 
L 227.469874 -150.337651 
L 227.379093 -150.194971 
L 227.273392 -150.052292 
L 227.154706 -149.909613 
L 227.02489 -149.766934 
L 226.885668 -149.624255 
L 226.738584 -149.481576 
L 226.584965 -149.338897 
L 226.425893 -149.196218 
L 226.262186 -149.053538 
L 226.094396 -148.910859 
L 225.922813 -148.76818 
L 225.747483 -148.625501 
L 225.568238 -148.482822 
L 225.384735 -148.340143 
L 225.196499 -148.197464 
L 225.002976 -148.054785 
L 224.803587 -147.912105 
L 224.597783 -147.769426 
L 224.385095 -147.626747 
L 224.165189 -147.484068 
L 223.937899 -147.341389 
L 223.703267 -147.19871 
L 223.461565 -147.056031 
L 223.213301 -146.913352 
L 222.959229 -146.770672 
L 222.700326 -146.627993 
L 222.43778 -146.485314 
L 222.172949 -146.342635 
L 221.907324 -146.199956 
L 221.642481 -146.057277 
L 221.380026 -145.914598 
L 221.121544 -145.771918 
L 220.868545 -145.629239 
L 220.622413 -145.48656 
L 220.384358 -145.343881 
L 220.155382 -145.201202 
L 219.936245 -145.058523 
L 219.727447 -144.915844 
L 219.529215 -144.773165 
L 219.341509 -144.630485 
L 219.164025 -144.487806 
L 218.996221 -144.345127 
L 218.837346 -144.202448 
L 218.68647 -144.059769 
L 218.54253 -143.91709 
L 218.404372 -143.774411 
L 218.270797 -143.631732 
L 218.140606 -143.489052 
L 218.012645 -143.346373 
L 217.885843 -143.203694 
L 217.759245 -143.061015 
L 217.632042 -142.918336 
L 217.503593 -142.775657 
z
" id="m88ae6dc9ea" style="stroke:#81b8df;"/>
    </defs>
    <g clip-path="url(#pe95b66070d)">
     <use style="fill:#b1ccdf;stroke:#81b8df;" x="0" xlink:href="#m88ae6dc9ea" y="314.7395"/>
    </g>
   </g>
   <g id="PolyCollection_6">
    <defs>
     <path d="M 261.215802 -110.114951 
L 256.571698 -110.114951 
L 256.42814 -110.253708 
L 256.277524 -110.392466 
L 256.118782 -110.531223 
L 255.950748 -110.66998 
L 255.772181 -110.808738 
L 255.581806 -110.947495 
L 255.378348 -111.086252 
L 255.160576 -111.22501 
L 254.927348 -111.363767 
L 254.677654 -111.502524 
L 254.410667 -111.641282 
L 254.12578 -111.780039 
L 253.822654 -111.918796 
L 253.501246 -112.057554 
L 253.161846 -112.196311 
L 252.805097 -112.335068 
L 252.432013 -112.473826 
L 252.043985 -112.612583 
L 251.642782 -112.75134 
L 251.230539 -112.890098 
L 250.80974 -113.028855 
L 250.383193 -113.167613 
L 249.95399 -113.30637 
L 249.525465 -113.445127 
L 249.101147 -113.583885 
L 248.684698 -113.722642 
L 248.279857 -113.861399 
L 247.890372 -114.000157 
L 247.519931 -114.138914 
L 247.172097 -114.277671 
L 246.850232 -114.416429 
L 246.557441 -114.555186 
L 246.2965 -114.693943 
L 246.069805 -114.832701 
L 245.879319 -114.971458 
L 245.726536 -115.110215 
L 245.612449 -115.248973 
L 245.537535 -115.38773 
L 245.50175 -115.526487 
L 245.50454 -115.665245 
L 245.544863 -115.804002 
L 245.62123 -115.942759 
L 245.731748 -116.081517 
L 245.874184 -116.220274 
L 246.046028 -116.359032 
L 246.244571 -116.497789 
L 246.466975 -116.636546 
L 246.710348 -116.775304 
L 246.971816 -116.914061 
L 247.248586 -117.052818 
L 247.537996 -117.191576 
L 247.837565 -117.330333 
L 248.145011 -117.46909 
L 248.458279 -117.607848 
L 248.775533 -117.746605 
L 249.095153 -117.885362 
L 249.415712 -118.02412 
L 249.735946 -118.162877 
L 250.05472 -118.301634 
L 250.370993 -118.440392 
L 250.683776 -118.579149 
L 250.992106 -118.717906 
L 251.295011 -118.856664 
L 251.591495 -118.995421 
L 251.880527 -119.134179 
L 252.161041 -119.272936 
L 252.431944 -119.411693 
L 252.692139 -119.550451 
L 252.94055 -119.689208 
L 253.176158 -119.827965 
L 253.398037 -119.966723 
L 253.605395 -120.10548 
L 253.797608 -120.244237 
L 253.974263 -120.382995 
L 254.135176 -120.521752 
L 254.280425 -120.660509 
L 254.410351 -120.799267 
L 254.525572 -120.938024 
L 254.626967 -121.076781 
L 254.715667 -121.215539 
L 254.793024 -121.354296 
L 254.86058 -121.493053 
L 254.920029 -121.631811 
L 254.97317 -121.770568 
L 255.021863 -121.909325 
L 255.067977 -122.048083 
L 255.113348 -122.18684 
L 255.159726 -122.325598 
L 255.208743 -122.464355 
L 255.261866 -122.603112 
L 255.320375 -122.74187 
L 255.385332 -122.880627 
L 255.457564 -123.019384 
L 255.537656 -123.158142 
L 255.625942 -123.296899 
L 255.722511 -123.435656 
L 255.827212 -123.574414 
L 255.939675 -123.713171 
L 256.059323 -123.851928 
L 261.728177 -123.851928 
L 261.728177 -123.851928 
L 261.847825 -123.713171 
L 261.960288 -123.574414 
L 262.064989 -123.435656 
L 262.161558 -123.296899 
L 262.249844 -123.158142 
L 262.329936 -123.019384 
L 262.402168 -122.880627 
L 262.467125 -122.74187 
L 262.525634 -122.603112 
L 262.578757 -122.464355 
L 262.627774 -122.325598 
L 262.674152 -122.18684 
L 262.719523 -122.048083 
L 262.765637 -121.909325 
L 262.81433 -121.770568 
L 262.867471 -121.631811 
L 262.92692 -121.493053 
L 262.994476 -121.354296 
L 263.071833 -121.215539 
L 263.160533 -121.076781 
L 263.261928 -120.938024 
L 263.377149 -120.799267 
L 263.507075 -120.660509 
L 263.652324 -120.521752 
L 263.813237 -120.382995 
L 263.989892 -120.244237 
L 264.182105 -120.10548 
L 264.389463 -119.966723 
L 264.611342 -119.827965 
L 264.84695 -119.689208 
L 265.095361 -119.550451 
L 265.355556 -119.411693 
L 265.626459 -119.272936 
L 265.906973 -119.134179 
L 266.196005 -118.995421 
L 266.492489 -118.856664 
L 266.795394 -118.717906 
L 267.103724 -118.579149 
L 267.416507 -118.440392 
L 267.73278 -118.301634 
L 268.051554 -118.162877 
L 268.371788 -118.02412 
L 268.692347 -117.885362 
L 269.011967 -117.746605 
L 269.329221 -117.607848 
L 269.642489 -117.46909 
L 269.949935 -117.330333 
L 270.249504 -117.191576 
L 270.538914 -117.052818 
L 270.815684 -116.914061 
L 271.077152 -116.775304 
L 271.320525 -116.636546 
L 271.542929 -116.497789 
L 271.741472 -116.359032 
L 271.913316 -116.220274 
L 272.055752 -116.081517 
L 272.16627 -115.942759 
L 272.242637 -115.804002 
L 272.28296 -115.665245 
L 272.28575 -115.526487 
L 272.249965 -115.38773 
L 272.175051 -115.248973 
L 272.060964 -115.110215 
L 271.908181 -114.971458 
L 271.717695 -114.832701 
L 271.491 -114.693943 
L 271.230059 -114.555186 
L 270.937268 -114.416429 
L 270.615403 -114.277671 
L 270.267569 -114.138914 
L 269.897128 -114.000157 
L 269.507643 -113.861399 
L 269.102802 -113.722642 
L 268.686353 -113.583885 
L 268.262035 -113.445127 
L 267.83351 -113.30637 
L 267.404307 -113.167613 
L 266.97776 -113.028855 
L 266.556961 -112.890098 
L 266.144718 -112.75134 
L 265.743515 -112.612583 
L 265.355487 -112.473826 
L 264.982403 -112.335068 
L 264.625654 -112.196311 
L 264.286254 -112.057554 
L 263.964846 -111.918796 
L 263.66172 -111.780039 
L 263.376833 -111.641282 
L 263.109846 -111.502524 
L 262.860152 -111.363767 
L 262.626924 -111.22501 
L 262.409152 -111.086252 
L 262.205694 -110.947495 
L 262.015319 -110.808738 
L 261.836752 -110.66998 
L 261.668718 -110.531223 
L 261.509976 -110.392466 
L 261.35936 -110.253708 
L 261.215802 -110.114951 
z
" id="m4abc45d534" style="stroke:#fe817d;"/>
    </defs>
    <g clip-path="url(#pe95b66070d)">
     <use style="fill:#fcbbae;stroke:#fe817d;" x="0" xlink:href="#m4abc45d534" y="314.7395"/>
    </g>
   </g>
   <g id="PolyCollection_7">
    <defs>
     <path d="M 307.509318 -190.261004 
L 299.558182 -190.261004 
L 299.265841 -190.371742 
L 298.959779 -190.48248 
L 298.639975 -190.593218 
L 298.306564 -190.703955 
L 297.95987 -190.814693 
L 297.600438 -190.925431 
L 297.229058 -191.036169 
L 296.846794 -191.146907 
L 296.454996 -191.257644 
L 296.055307 -191.368382 
L 295.649668 -191.47912 
L 295.240298 -191.589858 
L 294.829674 -191.700596 
L 294.420495 -191.811333 
L 294.015637 -191.922071 
L 293.618096 -192.032809 
L 293.230925 -192.143547 
L 292.85716 -192.254285 
L 292.499751 -192.365022 
L 292.161486 -192.47576 
L 291.844915 -192.586498 
L 291.552285 -192.697236 
L 291.285482 -192.807974 
L 291.045983 -192.918711 
L 290.834818 -193.029449 
L 290.652555 -193.140187 
L 290.499292 -193.250925 
L 290.374676 -193.361663 
L 290.277927 -193.4724 
L 290.207887 -193.583138 
L 290.163072 -193.693876 
L 290.14175 -193.804614 
L 290.142009 -193.915352 
L 290.161843 -194.026089 
L 290.199234 -194.136827 
L 290.252232 -194.247565 
L 290.319027 -194.358303 
L 290.398018 -194.469041 
L 290.487864 -194.579778 
L 290.587525 -194.690516 
L 290.696284 -194.801254 
L 290.813757 -194.911992 
L 290.939887 -195.02273 
L 291.074914 -195.133467 
L 291.219343 -195.244205 
L 291.373891 -195.354943 
L 291.539424 -195.465681 
L 291.716893 -195.576419 
L 291.907258 -195.687156 
L 292.111416 -195.797894 
L 292.330127 -195.908632 
L 292.56395 -196.01937 
L 292.813177 -196.130108 
L 293.077788 -196.240845 
L 293.357412 -196.351583 
L 293.651299 -196.462321 
L 293.95831 -196.573059 
L 294.276921 -196.683797 
L 294.605241 -196.794534 
L 294.941039 -196.905272 
L 295.281795 -197.01601 
L 295.624749 -197.126748 
L 295.966966 -197.237486 
L 296.305408 -197.348223 
L 296.637009 -197.458961 
L 296.95875 -197.569699 
L 297.267739 -197.680437 
L 297.561284 -197.791175 
L 297.836961 -197.901913 
L 298.092675 -198.01265 
L 298.326716 -198.123388 
L 298.537798 -198.234126 
L 298.725089 -198.344864 
L 298.888233 -198.455602 
L 299.027351 -198.566339 
L 299.143035 -198.677077 
L 299.236329 -198.787815 
L 299.308696 -198.898553 
L 299.361978 -199.009291 
L 299.398344 -199.120028 
L 299.420231 -199.230766 
L 299.430283 -199.341504 
L 299.43128 -199.452242 
L 299.426071 -199.56298 
L 299.417505 -199.673717 
L 299.408363 -199.784455 
L 299.401297 -199.895193 
L 299.398773 -200.005931 
L 299.40302 -200.116669 
L 299.41599 -200.227406 
L 299.439321 -200.338144 
L 299.47432 -200.448882 
L 299.521943 -200.55962 
L 299.582794 -200.670358 
L 299.65713 -200.781095 
L 299.744872 -200.891833 
L 299.845631 -201.002571 
L 299.958728 -201.113309 
L 300.083237 -201.224047 
L 306.984263 -201.224047 
L 306.984263 -201.224047 
L 307.108772 -201.113309 
L 307.221869 -201.002571 
L 307.322628 -200.891833 
L 307.41037 -200.781095 
L 307.484706 -200.670358 
L 307.545557 -200.55962 
L 307.59318 -200.448882 
L 307.628179 -200.338144 
L 307.65151 -200.227406 
L 307.66448 -200.116669 
L 307.668727 -200.005931 
L 307.666203 -199.895193 
L 307.659137 -199.784455 
L 307.649995 -199.673717 
L 307.641429 -199.56298 
L 307.63622 -199.452242 
L 307.637217 -199.341504 
L 307.647269 -199.230766 
L 307.669156 -199.120028 
L 307.705522 -199.009291 
L 307.758804 -198.898553 
L 307.831171 -198.787815 
L 307.924465 -198.677077 
L 308.040149 -198.566339 
L 308.179267 -198.455602 
L 308.342411 -198.344864 
L 308.529702 -198.234126 
L 308.740784 -198.123388 
L 308.974825 -198.01265 
L 309.230539 -197.901913 
L 309.506216 -197.791175 
L 309.799761 -197.680437 
L 310.10875 -197.569699 
L 310.430491 -197.458961 
L 310.762092 -197.348223 
L 311.100534 -197.237486 
L 311.442751 -197.126748 
L 311.785705 -197.01601 
L 312.126461 -196.905272 
L 312.462259 -196.794534 
L 312.790579 -196.683797 
L 313.10919 -196.573059 
L 313.416201 -196.462321 
L 313.710088 -196.351583 
L 313.989712 -196.240845 
L 314.254323 -196.130108 
L 314.50355 -196.01937 
L 314.737373 -195.908632 
L 314.956084 -195.797894 
L 315.160242 -195.687156 
L 315.350607 -195.576419 
L 315.528076 -195.465681 
L 315.693609 -195.354943 
L 315.848157 -195.244205 
L 315.992586 -195.133467 
L 316.127613 -195.02273 
L 316.253743 -194.911992 
L 316.371216 -194.801254 
L 316.479975 -194.690516 
L 316.579636 -194.579778 
L 316.669482 -194.469041 
L 316.748473 -194.358303 
L 316.815268 -194.247565 
L 316.868266 -194.136827 
L 316.905657 -194.026089 
L 316.925491 -193.915352 
L 316.92575 -193.804614 
L 316.904428 -193.693876 
L 316.859613 -193.583138 
L 316.789573 -193.4724 
L 316.692824 -193.361663 
L 316.568208 -193.250925 
L 316.414945 -193.140187 
L 316.232682 -193.029449 
L 316.021517 -192.918711 
L 315.782018 -192.807974 
L 315.515215 -192.697236 
L 315.222585 -192.586498 
L 314.906014 -192.47576 
L 314.567749 -192.365022 
L 314.21034 -192.254285 
L 313.836575 -192.143547 
L 313.449404 -192.032809 
L 313.051863 -191.922071 
L 312.647005 -191.811333 
L 312.237826 -191.700596 
L 311.827202 -191.589858 
L 311.417832 -191.47912 
L 311.012193 -191.368382 
L 310.612504 -191.257644 
L 310.220706 -191.146907 
L 309.838442 -191.036169 
L 309.467062 -190.925431 
L 309.10763 -190.814693 
L 308.760936 -190.703955 
L 308.427525 -190.593218 
L 308.107721 -190.48248 
L 307.801659 -190.371742 
L 307.509318 -190.261004 
z
" id="mff5bb393f5" style="stroke:#81b8df;"/>
    </defs>
    <g clip-path="url(#pe95b66070d)">
     <use style="fill:#b1ccdf;stroke:#81b8df;" x="0" xlink:href="#mff5bb393f5" y="314.7395"/>
    </g>
   </g>
   <g id="PolyCollection_8">
    <defs>
     <path d="M 351.575165 -167.347166 
L 344.772335 -167.347166 
L 344.451916 -167.517616 
L 344.109761 -167.688067 
L 343.745513 -167.858517 
L 343.359105 -168.028968 
L 342.950826 -168.199418 
L 342.521384 -168.369868 
L 342.071962 -168.540319 
L 341.604267 -168.710769 
L 341.120575 -168.88122 
L 340.623742 -169.05167 
L 340.11722 -169.22212 
L 339.605033 -169.392571 
L 339.091746 -169.563021 
L 338.582401 -169.733472 
L 338.082434 -169.903922 
L 337.597577 -170.074372 
L 337.133732 -170.244823 
L 336.696839 -170.415273 
L 336.29273 -170.585724 
L 335.926974 -170.756174 
L 335.604736 -170.926624 
L 335.330627 -171.097075 
L 335.10858 -171.267525 
L 334.941735 -171.437976 
L 334.832352 -171.608426 
L 334.78175 -171.778876 
L 334.790274 -171.949327 
L 334.857294 -172.119777 
L 334.981237 -172.290228 
L 335.159642 -172.460678 
L 335.389248 -172.631128 
L 335.666102 -172.801579 
L 335.985684 -172.972029 
L 336.343045 -173.14248 
L 336.73295 -173.31293 
L 337.150022 -173.48338 
L 337.588881 -173.653831 
L 338.044269 -173.824281 
L 338.511163 -173.994732 
L 338.984869 -174.165182 
L 339.461092 -174.335632 
L 339.935987 -174.506083 
L 340.406187 -174.676533 
L 340.868811 -174.846984 
L 341.32145 -175.017434 
L 341.762145 -175.187884 
L 342.18934 -175.358335 
L 342.601841 -175.528785 
L 342.998756 -175.699236 
L 343.379443 -175.869686 
L 343.743456 -176.040136 
L 344.090494 -176.210587 
L 344.420355 -176.381037 
L 344.732905 -176.551488 
L 345.028045 -176.721938 
L 345.305694 -176.892388 
L 345.565775 -177.062839 
L 345.808215 -177.233289 
L 346.032938 -177.40374 
L 346.239881 -177.57419 
L 346.428996 -177.744641 
L 346.600265 -177.915091 
L 346.753711 -178.085541 
L 346.889413 -178.255992 
L 347.007512 -178.426442 
L 347.108229 -178.596893 
L 347.191866 -178.767343 
L 347.258817 -178.937793 
L 347.30957 -179.108244 
L 347.344713 -179.278694 
L 347.36493 -179.449145 
L 347.371006 -179.619595 
L 347.363825 -179.790045 
L 347.344362 -179.960496 
L 347.313684 -180.130946 
L 347.272943 -180.301397 
L 347.223369 -180.471847 
L 347.16626 -180.642297 
L 347.102973 -180.812748 
L 347.034914 -180.983198 
L 346.963522 -181.153649 
L 346.890251 -181.324099 
L 346.81656 -181.494549 
L 346.743887 -181.665 
L 346.673636 -181.83545 
L 346.60715 -182.005901 
L 346.545697 -182.176351 
L 346.490444 -182.346801 
L 346.442444 -182.517252 
L 346.402613 -182.687702 
L 346.371718 -182.858153 
L 346.350363 -183.028603 
L 346.338979 -183.199053 
L 346.33782 -183.369504 
L 346.346956 -183.539954 
L 346.366279 -183.710405 
L 346.395507 -183.880855 
L 346.434193 -184.051305 
L 346.481739 -184.221756 
L 349.865761 -184.221756 
L 349.865761 -184.221756 
L 349.913307 -184.051305 
L 349.951993 -183.880855 
L 349.981221 -183.710405 
L 350.000544 -183.539954 
L 350.00968 -183.369504 
L 350.008521 -183.199053 
L 349.997137 -183.028603 
L 349.975782 -182.858153 
L 349.944887 -182.687702 
L 349.905056 -182.517252 
L 349.857056 -182.346801 
L 349.801803 -182.176351 
L 349.74035 -182.005901 
L 349.673864 -181.83545 
L 349.603613 -181.665 
L 349.53094 -181.494549 
L 349.457249 -181.324099 
L 349.383978 -181.153649 
L 349.312586 -180.983198 
L 349.244527 -180.812748 
L 349.18124 -180.642297 
L 349.124131 -180.471847 
L 349.074557 -180.301397 
L 349.033816 -180.130946 
L 349.003138 -179.960496 
L 348.983675 -179.790045 
L 348.976494 -179.619595 
L 348.98257 -179.449145 
L 349.002787 -179.278694 
L 349.03793 -179.108244 
L 349.088683 -178.937793 
L 349.155634 -178.767343 
L 349.239271 -178.596893 
L 349.339988 -178.426442 
L 349.458087 -178.255992 
L 349.593789 -178.085541 
L 349.747235 -177.915091 
L 349.918504 -177.744641 
L 350.107619 -177.57419 
L 350.314562 -177.40374 
L 350.539285 -177.233289 
L 350.781725 -177.062839 
L 351.041806 -176.892388 
L 351.319455 -176.721938 
L 351.614595 -176.551488 
L 351.927145 -176.381037 
L 352.257006 -176.210587 
L 352.604044 -176.040136 
L 352.968057 -175.869686 
L 353.348744 -175.699236 
L 353.745659 -175.528785 
L 354.15816 -175.358335 
L 354.585355 -175.187884 
L 355.02605 -175.017434 
L 355.478689 -174.846984 
L 355.941313 -174.676533 
L 356.411513 -174.506083 
L 356.886408 -174.335632 
L 357.362631 -174.165182 
L 357.836337 -173.994732 
L 358.303231 -173.824281 
L 358.758619 -173.653831 
L 359.197478 -173.48338 
L 359.61455 -173.31293 
L 360.004455 -173.14248 
L 360.361816 -172.972029 
L 360.681398 -172.801579 
L 360.958252 -172.631128 
L 361.187858 -172.460678 
L 361.366263 -172.290228 
L 361.490206 -172.119777 
L 361.557226 -171.949327 
L 361.56575 -171.778876 
L 361.515148 -171.608426 
L 361.405765 -171.437976 
L 361.23892 -171.267525 
L 361.016873 -171.097075 
L 360.742764 -170.926624 
L 360.420526 -170.756174 
L 360.05477 -170.585724 
L 359.650661 -170.415273 
L 359.213768 -170.244823 
L 358.749923 -170.074372 
L 358.265066 -169.903922 
L 357.765099 -169.733472 
L 357.255754 -169.563021 
L 356.742467 -169.392571 
L 356.23028 -169.22212 
L 355.723758 -169.05167 
L 355.226925 -168.88122 
L 354.743233 -168.710769 
L 354.275538 -168.540319 
L 353.826116 -168.369868 
L 353.396674 -168.199418 
L 352.988395 -168.028968 
L 352.601987 -167.858517 
L 352.237739 -167.688067 
L 351.895584 -167.517616 
L 351.575165 -167.347166 
z
" id="m7aaace1180" style="stroke:#fe817d;"/>
    </defs>
    <g clip-path="url(#pe95b66070d)">
     <use style="fill:#fcbbae;stroke:#fe817d;" x="0" xlink:href="#m7aaace1180" y="314.7395"/>
    </g>
   </g>
   <g id="PolyCollection_9">
    <defs>
     <path d="M 397.6671 -247.699836 
L 387.9604 -247.699836 
L 387.629227 -247.800726 
L 387.289139 -247.901615 
L 386.940933 -248.002505 
L 386.585481 -248.103395 
L 386.223739 -248.204284 
L 385.856742 -248.305174 
L 385.485608 -248.406063 
L 385.111544 -248.506953 
L 384.735838 -248.607843 
L 384.359866 -248.708732 
L 383.985088 -248.809622 
L 383.613049 -248.910511 
L 383.24537 -249.011401 
L 382.88375 -249.112291 
L 382.529955 -249.21318 
L 382.185811 -249.31407 
L 381.853194 -249.414959 
L 381.534019 -249.515849 
L 381.230224 -249.616739 
L 380.943754 -249.717628 
L 380.676544 -249.818518 
L 380.430494 -249.919407 
L 380.207451 -250.020297 
L 380.009179 -250.121187 
L 379.837338 -250.222076 
L 379.693454 -250.322966 
L 379.578889 -250.423855 
L 379.494818 -250.524745 
L 379.442199 -250.625635 
L 379.42175 -250.726524 
L 379.433925 -250.827414 
L 379.478898 -250.928303 
L 379.556546 -251.029193 
L 379.666442 -251.130083 
L 379.80785 -251.230972 
L 379.979732 -251.331862 
L 380.180751 -251.432751 
L 380.409295 -251.533641 
L 380.663495 -251.634531 
L 380.941251 -251.73542 
L 381.24027 -251.83631 
L 381.558102 -251.937199 
L 381.892178 -252.038089 
L 382.239853 -252.138979 
L 382.598446 -252.239868 
L 382.965285 -252.340758 
L 383.337742 -252.441647 
L 383.713267 -252.542537 
L 384.089423 -252.643427 
L 384.463905 -252.744316 
L 384.834566 -252.845206 
L 385.199429 -252.946095 
L 385.556693 -253.046985 
L 385.904741 -253.147875 
L 386.242133 -253.248764 
L 386.567606 -253.349654 
L 386.880064 -253.450543 
L 387.178566 -253.551433 
L 387.462316 -253.652323 
L 387.730654 -253.753212 
L 387.983039 -253.854102 
L 388.219047 -253.954991 
L 388.438355 -254.055881 
L 388.640745 -254.156771 
L 388.82609 -254.25766 
L 388.994362 -254.35855 
L 389.145625 -254.459439 
L 389.280043 -254.560329 
L 389.397879 -254.661219 
L 389.499502 -254.762108 
L 389.585387 -254.862998 
L 389.656122 -254.963887 
L 389.712408 -255.064777 
L 389.755057 -255.165667 
L 389.784996 -255.266556 
L 389.80326 -255.367446 
L 389.810985 -255.468335 
L 389.809401 -255.569225 
L 389.799823 -255.670115 
L 389.783632 -255.771004 
L 389.762268 -255.871894 
L 389.737205 -255.972783 
L 389.709939 -256.073673 
L 389.681962 -256.174563 
L 389.654747 -256.275452 
L 389.629723 -256.376342 
L 389.608259 -256.477231 
L 389.591638 -256.578121 
L 389.58104 -256.679011 
L 389.577525 -256.7799 
L 389.582017 -256.88079 
L 389.595286 -256.981679 
L 389.617941 -257.082569 
L 389.650418 -257.183459 
L 389.692977 -257.284348 
L 389.745697 -257.385238 
L 389.808479 -257.486127 
L 389.881052 -257.587017 
L 389.962979 -257.687907 
L 395.664521 -257.687907 
L 395.664521 -257.687907 
L 395.746448 -257.587017 
L 395.819021 -257.486127 
L 395.881803 -257.385238 
L 395.934523 -257.284348 
L 395.977082 -257.183459 
L 396.009559 -257.082569 
L 396.032214 -256.981679 
L 396.045483 -256.88079 
L 396.049975 -256.7799 
L 396.04646 -256.679011 
L 396.035862 -256.578121 
L 396.019241 -256.477231 
L 395.997777 -256.376342 
L 395.972753 -256.275452 
L 395.945538 -256.174563 
L 395.917561 -256.073673 
L 395.890295 -255.972783 
L 395.865232 -255.871894 
L 395.843868 -255.771004 
L 395.827677 -255.670115 
L 395.818099 -255.569225 
L 395.816515 -255.468335 
L 395.82424 -255.367446 
L 395.842504 -255.266556 
L 395.872443 -255.165667 
L 395.915092 -255.064777 
L 395.971378 -254.963887 
L 396.042113 -254.862998 
L 396.127998 -254.762108 
L 396.229621 -254.661219 
L 396.347457 -254.560329 
L 396.481875 -254.459439 
L 396.633138 -254.35855 
L 396.80141 -254.25766 
L 396.986755 -254.156771 
L 397.189145 -254.055881 
L 397.408453 -253.954991 
L 397.644461 -253.854102 
L 397.896846 -253.753212 
L 398.165184 -253.652323 
L 398.448934 -253.551433 
L 398.747436 -253.450543 
L 399.059894 -253.349654 
L 399.385367 -253.248764 
L 399.722759 -253.147875 
L 400.070807 -253.046985 
L 400.428071 -252.946095 
L 400.792934 -252.845206 
L 401.163595 -252.744316 
L 401.538077 -252.643427 
L 401.914233 -252.542537 
L 402.289758 -252.441647 
L 402.662215 -252.340758 
L 403.029054 -252.239868 
L 403.387647 -252.138979 
L 403.735322 -252.038089 
L 404.069398 -251.937199 
L 404.38723 -251.83631 
L 404.686249 -251.73542 
L 404.964005 -251.634531 
L 405.218205 -251.533641 
L 405.446749 -251.432751 
L 405.647768 -251.331862 
L 405.81965 -251.230972 
L 405.961058 -251.130083 
L 406.070954 -251.029193 
L 406.148602 -250.928303 
L 406.193575 -250.827414 
L 406.20575 -250.726524 
L 406.185301 -250.625635 
L 406.132682 -250.524745 
L 406.048611 -250.423855 
L 405.934046 -250.322966 
L 405.790162 -250.222076 
L 405.618321 -250.121187 
L 405.420049 -250.020297 
L 405.197006 -249.919407 
L 404.950956 -249.818518 
L 404.683746 -249.717628 
L 404.397276 -249.616739 
L 404.093481 -249.515849 
L 403.774306 -249.414959 
L 403.441689 -249.31407 
L 403.097545 -249.21318 
L 402.74375 -249.112291 
L 402.38213 -249.011401 
L 402.014451 -248.910511 
L 401.642412 -248.809622 
L 401.267634 -248.708732 
L 400.891662 -248.607843 
L 400.515956 -248.506953 
L 400.141892 -248.406063 
L 399.770758 -248.305174 
L 399.403761 -248.204284 
L 399.042019 -248.103395 
L 398.686567 -248.002505 
L 398.338361 -247.901615 
L 397.998273 -247.800726 
L 397.6671 -247.699836 
z
" id="ma6a34cf182" style="stroke:#81b8df;"/>
    </defs>
    <g clip-path="url(#pe95b66070d)">
     <use style="fill:#b1ccdf;stroke:#81b8df;" x="0" xlink:href="#ma6a34cf182" y="314.7395"/>
    </g>
   </g>
   <g id="matplotlib.axis_1">
    <g id="xtick_1">
     <g id="line2d_1">
      <defs>
       <path d="M 0 0 
L 0 3.5 
" id="m93f323f95a" style="stroke:#000000;stroke-width:0.8;"/>
      </defs>
      <g>
       <use style="stroke:#000000;stroke-width:0.8;" x="102.65375" xlink:href="#m93f323f95a" y="273.312"/>
      </g>
     </g>
     <g id="text_1">
      <!-- $10^4$ -->
      <defs>
       <path d="M 12.40625 8.296875 
L 28.515625 8.296875 
L 28.515625 63.921875 
L 10.984375 60.40625 
L 10.984375 69.390625 
L 28.421875 72.90625 
L 38.28125 72.90625 
L 38.28125 8.296875 
L 54.390625 8.296875 
L 54.390625 0 
L 12.40625 0 
z
" id="DejaVuSans-49"/>
       <path d="M 31.78125 66.40625 
Q 24.171875 66.40625 20.328125 58.90625 
Q 16.5 51.421875 16.5 36.375 
Q 16.5 21.390625 20.328125 13.890625 
Q 24.171875 6.390625 31.78125 6.390625 
Q 39.453125 6.390625 43.28125 13.890625 
Q 47.125 21.390625 47.125 36.375 
Q 47.125 51.421875 43.28125 58.90625 
Q 39.453125 66.40625 31.78125 66.40625 
z
M 31.78125 74.21875 
Q 44.046875 74.21875 50.515625 64.515625 
Q 56.984375 54.828125 56.984375 36.375 
Q 56.984375 17.96875 50.515625 8.265625 
Q 44.046875 -1.421875 31.78125 -1.421875 
Q 19.53125 -1.421875 13.0625 8.265625 
Q 6.59375 17.96875 6.59375 36.375 
Q 6.59375 54.828125 13.0625 64.515625 
Q 19.53125 74.21875 31.78125 74.21875 
z
" id="DejaVuSans-48"/>
       <path d="M 37.796875 64.3125 
L 12.890625 25.390625 
L 37.796875 25.390625 
z
M 35.203125 72.90625 
L 47.609375 72.90625 
L 47.609375 25.390625 
L 58.015625 25.390625 
L 58.015625 17.1875 
L 47.609375 17.1875 
L 47.609375 0 
L 37.796875 0 
L 37.796875 17.1875 
L 4.890625 17.1875 
L 4.890625 26.703125 
z
" id="DejaVuSans-52"/>
      </defs>
      <g transform="translate(92.09375 289.430125)scale(0.12 -0.12)">
       <use transform="translate(0 0.684375)" xlink:href="#DejaVuSans-49"/>
       <use transform="translate(63.623047 0.684375)" xlink:href="#DejaVuSans-48"/>
       <use transform="translate(128.203125 38.965625)scale(0.7)" xlink:href="#DejaVuSans-52"/>
      </g>
     </g>
    </g>
    <g id="xtick_2">
     <g id="line2d_2">
      <g>
       <use style="stroke:#000000;stroke-width:0.8;" x="191.93375" xlink:href="#m93f323f95a" y="273.312"/>
      </g>
     </g>
     <g id="text_2">
      <!-- $10^5$ -->
      <defs>
       <path d="M 10.796875 72.90625 
L 49.515625 72.90625 
L 49.515625 64.59375 
L 19.828125 64.59375 
L 19.828125 46.734375 
Q 21.96875 47.46875 24.109375 47.828125 
Q 26.265625 48.1875 28.421875 48.1875 
Q 40.625 48.1875 47.75 41.5 
Q 54.890625 34.8125 54.890625 23.390625 
Q 54.890625 11.625 47.5625 5.09375 
Q 40.234375 -1.421875 26.90625 -1.421875 
Q 22.3125 -1.421875 17.546875 -0.640625 
Q 12.796875 0.140625 7.71875 1.703125 
L 7.71875 11.625 
Q 12.109375 9.234375 16.796875 8.0625 
Q 21.484375 6.890625 26.703125 6.890625 
Q 35.15625 6.890625 40.078125 11.328125 
Q 45.015625 15.765625 45.015625 23.390625 
Q 45.015625 31 40.078125 35.4375 
Q 35.15625 39.890625 26.703125 39.890625 
Q 22.75 39.890625 18.8125 39.015625 
Q 14.890625 38.140625 10.796875 36.28125 
z
" id="DejaVuSans-53"/>
      </defs>
      <g transform="translate(181.37375 289.430125)scale(0.12 -0.12)">
       <use transform="translate(0 0.684375)" xlink:href="#DejaVuSans-49"/>
       <use transform="translate(63.623047 0.684375)" xlink:href="#DejaVuSans-48"/>
       <use transform="translate(128.203125 38.965625)scale(0.7)" xlink:href="#DejaVuSans-53"/>
      </g>
     </g>
    </g>
    <g id="xtick_3">
     <g id="line2d_3">
      <g>
       <use style="stroke:#000000;stroke-width:0.8;" x="281.21375" xlink:href="#m93f323f95a" y="273.312"/>
      </g>
     </g>
     <g id="text_3">
      <!-- $10^6$ -->
      <defs>
       <path d="M 33.015625 40.375 
Q 26.375 40.375 22.484375 35.828125 
Q 18.609375 31.296875 18.609375 23.390625 
Q 18.609375 15.53125 22.484375 10.953125 
Q 26.375 6.390625 33.015625 6.390625 
Q 39.65625 6.390625 43.53125 10.953125 
Q 47.40625 15.53125 47.40625 23.390625 
Q 47.40625 31.296875 43.53125 35.828125 
Q 39.65625 40.375 33.015625 40.375 
z
M 52.59375 71.296875 
L 52.59375 62.3125 
Q 48.875 64.0625 45.09375 64.984375 
Q 41.3125 65.921875 37.59375 65.921875 
Q 27.828125 65.921875 22.671875 59.328125 
Q 17.53125 52.734375 16.796875 39.40625 
Q 19.671875 43.65625 24.015625 45.921875 
Q 28.375 48.1875 33.59375 48.1875 
Q 44.578125 48.1875 50.953125 41.515625 
Q 57.328125 34.859375 57.328125 23.390625 
Q 57.328125 12.15625 50.6875 5.359375 
Q 44.046875 -1.421875 33.015625 -1.421875 
Q 20.359375 -1.421875 13.671875 8.265625 
Q 6.984375 17.96875 6.984375 36.375 
Q 6.984375 53.65625 15.1875 63.9375 
Q 23.390625 74.21875 37.203125 74.21875 
Q 40.921875 74.21875 44.703125 73.484375 
Q 48.484375 72.75 52.59375 71.296875 
z
" id="DejaVuSans-54"/>
      </defs>
      <g transform="translate(270.65375 289.430125)scale(0.12 -0.12)">
       <use transform="translate(0 0.765625)" xlink:href="#DejaVuSans-49"/>
       <use transform="translate(63.623047 0.765625)" xlink:href="#DejaVuSans-48"/>
       <use transform="translate(128.203125 39.046875)scale(0.7)" xlink:href="#DejaVuSans-54"/>
      </g>
     </g>
    </g>
    <g id="xtick_4">
     <g id="line2d_4">
      <g>
       <use style="stroke:#000000;stroke-width:0.8;" x="370.49375" xlink:href="#m93f323f95a" y="273.312"/>
      </g>
     </g>
     <g id="text_4">
      <!-- $10^7$ -->
      <defs>
       <path d="M 8.203125 72.90625 
L 55.078125 72.90625 
L 55.078125 68.703125 
L 28.609375 0 
L 18.3125 0 
L 43.21875 64.59375 
L 8.203125 64.59375 
z
" id="DejaVuSans-55"/>
      </defs>
      <g transform="translate(359.93375 289.430125)scale(0.12 -0.12)">
       <use transform="translate(0 0.684375)" xlink:href="#DejaVuSans-49"/>
       <use transform="translate(63.623047 0.684375)" xlink:href="#DejaVuSans-48"/>
       <use transform="translate(128.203125 38.965625)scale(0.7)" xlink:href="#DejaVuSans-55"/>
      </g>
     </g>
    </g>
    <g id="text_5">
     <!-- different number of samples with 20 variables -->
     <defs>
      <path d="M 45.40625 46.390625 
L 45.40625 75.984375 
L 54.390625 75.984375 
L 54.390625 0 
L 45.40625 0 
L 45.40625 8.203125 
Q 42.578125 3.328125 38.25 0.953125 
Q 33.9375 -1.421875 27.875 -1.421875 
Q 17.96875 -1.421875 11.734375 6.484375 
Q 5.515625 14.40625 5.515625 27.296875 
Q 5.515625 40.1875 11.734375 48.09375 
Q 17.96875 56 27.875 56 
Q 33.9375 56 38.25 53.625 
Q 42.578125 51.265625 45.40625 46.390625 
z
M 14.796875 27.296875 
Q 14.796875 17.390625 18.875 11.75 
Q 22.953125 6.109375 30.078125 6.109375 
Q 37.203125 6.109375 41.296875 11.75 
Q 45.40625 17.390625 45.40625 27.296875 
Q 45.40625 37.203125 41.296875 42.84375 
Q 37.203125 48.484375 30.078125 48.484375 
Q 22.953125 48.484375 18.875 42.84375 
Q 14.796875 37.203125 14.796875 27.296875 
z
" id="DejaVuSans-100"/>
      <path d="M 9.421875 54.6875 
L 18.40625 54.6875 
L 18.40625 0 
L 9.421875 0 
z
M 9.421875 75.984375 
L 18.40625 75.984375 
L 18.40625 64.59375 
L 9.421875 64.59375 
z
" id="DejaVuSans-105"/>
      <path d="M 37.109375 75.984375 
L 37.109375 68.5 
L 28.515625 68.5 
Q 23.6875 68.5 21.796875 66.546875 
Q 19.921875 64.59375 19.921875 59.515625 
L 19.921875 54.6875 
L 34.71875 54.6875 
L 34.71875 47.703125 
L 19.921875 47.703125 
L 19.921875 0 
L 10.890625 0 
L 10.890625 47.703125 
L 2.296875 47.703125 
L 2.296875 54.6875 
L 10.890625 54.6875 
L 10.890625 58.5 
Q 10.890625 67.625 15.140625 71.796875 
Q 19.390625 75.984375 28.609375 75.984375 
z
" id="DejaVuSans-102"/>
      <path d="M 56.203125 29.59375 
L 56.203125 25.203125 
L 14.890625 25.203125 
Q 15.484375 15.921875 20.484375 11.0625 
Q 25.484375 6.203125 34.421875 6.203125 
Q 39.59375 6.203125 44.453125 7.46875 
Q 49.3125 8.734375 54.109375 11.28125 
L 54.109375 2.78125 
Q 49.265625 0.734375 44.1875 -0.34375 
Q 39.109375 -1.421875 33.890625 -1.421875 
Q 20.796875 -1.421875 13.15625 6.1875 
Q 5.515625 13.8125 5.515625 26.8125 
Q 5.515625 40.234375 12.765625 48.109375 
Q 20.015625 56 32.328125 56 
Q 43.359375 56 49.78125 48.890625 
Q 56.203125 41.796875 56.203125 29.59375 
z
M 47.21875 32.234375 
Q 47.125 39.59375 43.09375 43.984375 
Q 39.0625 48.390625 32.421875 48.390625 
Q 24.90625 48.390625 20.390625 44.140625 
Q 15.875 39.890625 15.1875 32.171875 
z
" id="DejaVuSans-101"/>
      <path d="M 41.109375 46.296875 
Q 39.59375 47.171875 37.8125 47.578125 
Q 36.03125 48 33.890625 48 
Q 26.265625 48 22.1875 43.046875 
Q 18.109375 38.09375 18.109375 28.8125 
L 18.109375 0 
L 9.078125 0 
L 9.078125 54.6875 
L 18.109375 54.6875 
L 18.109375 46.1875 
Q 20.953125 51.171875 25.484375 53.578125 
Q 30.03125 56 36.53125 56 
Q 37.453125 56 38.578125 55.875 
Q 39.703125 55.765625 41.0625 55.515625 
z
" id="DejaVuSans-114"/>
      <path d="M 54.890625 33.015625 
L 54.890625 0 
L 45.90625 0 
L 45.90625 32.71875 
Q 45.90625 40.484375 42.875 44.328125 
Q 39.84375 48.1875 33.796875 48.1875 
Q 26.515625 48.1875 22.3125 43.546875 
Q 18.109375 38.921875 18.109375 30.90625 
L 18.109375 0 
L 9.078125 0 
L 9.078125 54.6875 
L 18.109375 54.6875 
L 18.109375 46.1875 
Q 21.34375 51.125 25.703125 53.5625 
Q 30.078125 56 35.796875 56 
Q 45.21875 56 50.046875 50.171875 
Q 54.890625 44.34375 54.890625 33.015625 
z
" id="DejaVuSans-110"/>
      <path d="M 18.3125 70.21875 
L 18.3125 54.6875 
L 36.8125 54.6875 
L 36.8125 47.703125 
L 18.3125 47.703125 
L 18.3125 18.015625 
Q 18.3125 11.328125 20.140625 9.421875 
Q 21.96875 7.515625 27.59375 7.515625 
L 36.8125 7.515625 
L 36.8125 0 
L 27.59375 0 
Q 17.1875 0 13.234375 3.875 
Q 9.28125 7.765625 9.28125 18.015625 
L 9.28125 47.703125 
L 2.6875 47.703125 
L 2.6875 54.6875 
L 9.28125 54.6875 
L 9.28125 70.21875 
z
" id="DejaVuSans-116"/>
      <path id="DejaVuSans-32"/>
      <path d="M 8.5 21.578125 
L 8.5 54.6875 
L 17.484375 54.6875 
L 17.484375 21.921875 
Q 17.484375 14.15625 20.5 10.265625 
Q 23.53125 6.390625 29.59375 6.390625 
Q 36.859375 6.390625 41.078125 11.03125 
Q 45.3125 15.671875 45.3125 23.6875 
L 45.3125 54.6875 
L 54.296875 54.6875 
L 54.296875 0 
L 45.3125 0 
L 45.3125 8.40625 
Q 42.046875 3.421875 37.71875 1 
Q 33.40625 -1.421875 27.6875 -1.421875 
Q 18.265625 -1.421875 13.375 4.4375 
Q 8.5 10.296875 8.5 21.578125 
z
M 31.109375 56 
z
" id="DejaVuSans-117"/>
      <path d="M 52 44.1875 
Q 55.375 50.25 60.0625 53.125 
Q 64.75 56 71.09375 56 
Q 79.640625 56 84.28125 50.015625 
Q 88.921875 44.046875 88.921875 33.015625 
L 88.921875 0 
L 79.890625 0 
L 79.890625 32.71875 
Q 79.890625 40.578125 77.09375 44.375 
Q 74.3125 48.1875 68.609375 48.1875 
Q 61.625 48.1875 57.5625 43.546875 
Q 53.515625 38.921875 53.515625 30.90625 
L 53.515625 0 
L 44.484375 0 
L 44.484375 32.71875 
Q 44.484375 40.625 41.703125 44.40625 
Q 38.921875 48.1875 33.109375 48.1875 
Q 26.21875 48.1875 22.15625 43.53125 
Q 18.109375 38.875 18.109375 30.90625 
L 18.109375 0 
L 9.078125 0 
L 9.078125 54.6875 
L 18.109375 54.6875 
L 18.109375 46.1875 
Q 21.1875 51.21875 25.484375 53.609375 
Q 29.78125 56 35.6875 56 
Q 41.65625 56 45.828125 52.96875 
Q 50 49.953125 52 44.1875 
z
" id="DejaVuSans-109"/>
      <path d="M 48.6875 27.296875 
Q 48.6875 37.203125 44.609375 42.84375 
Q 40.53125 48.484375 33.40625 48.484375 
Q 26.265625 48.484375 22.1875 42.84375 
Q 18.109375 37.203125 18.109375 27.296875 
Q 18.109375 17.390625 22.1875 11.75 
Q 26.265625 6.109375 33.40625 6.109375 
Q 40.53125 6.109375 44.609375 11.75 
Q 48.6875 17.390625 48.6875 27.296875 
z
M 18.109375 46.390625 
Q 20.953125 51.265625 25.265625 53.625 
Q 29.59375 56 35.59375 56 
Q 45.5625 56 51.78125 48.09375 
Q 58.015625 40.1875 58.015625 27.296875 
Q 58.015625 14.40625 51.78125 6.484375 
Q 45.5625 -1.421875 35.59375 -1.421875 
Q 29.59375 -1.421875 25.265625 0.953125 
Q 20.953125 3.328125 18.109375 8.203125 
L 18.109375 0 
L 9.078125 0 
L 9.078125 75.984375 
L 18.109375 75.984375 
z
" id="DejaVuSans-98"/>
      <path d="M 30.609375 48.390625 
Q 23.390625 48.390625 19.1875 42.75 
Q 14.984375 37.109375 14.984375 27.296875 
Q 14.984375 17.484375 19.15625 11.84375 
Q 23.34375 6.203125 30.609375 6.203125 
Q 37.796875 6.203125 41.984375 11.859375 
Q 46.1875 17.53125 46.1875 27.296875 
Q 46.1875 37.015625 41.984375 42.703125 
Q 37.796875 48.390625 30.609375 48.390625 
z
M 30.609375 56 
Q 42.328125 56 49.015625 48.375 
Q 55.71875 40.765625 55.71875 27.296875 
Q 55.71875 13.875 49.015625 6.21875 
Q 42.328125 -1.421875 30.609375 -1.421875 
Q 18.84375 -1.421875 12.171875 6.21875 
Q 5.515625 13.875 5.515625 27.296875 
Q 5.515625 40.765625 12.171875 48.375 
Q 18.84375 56 30.609375 56 
z
" id="DejaVuSans-111"/>
      <path d="M 44.28125 53.078125 
L 44.28125 44.578125 
Q 40.484375 46.53125 36.375 47.5 
Q 32.28125 48.484375 27.875 48.484375 
Q 21.1875 48.484375 17.84375 46.4375 
Q 14.5 44.390625 14.5 40.28125 
Q 14.5 37.15625 16.890625 35.375 
Q 19.28125 33.59375 26.515625 31.984375 
L 29.59375 31.296875 
Q 39.15625 29.25 43.1875 25.515625 
Q 47.21875 21.78125 47.21875 15.09375 
Q 47.21875 7.46875 41.1875 3.015625 
Q 35.15625 -1.421875 24.609375 -1.421875 
Q 20.21875 -1.421875 15.453125 -0.5625 
Q 10.6875 0.296875 5.421875 2 
L 5.421875 11.28125 
Q 10.40625 8.6875 15.234375 7.390625 
Q 20.0625 6.109375 24.8125 6.109375 
Q 31.15625 6.109375 34.5625 8.28125 
Q 37.984375 10.453125 37.984375 14.40625 
Q 37.984375 18.0625 35.515625 20.015625 
Q 33.0625 21.96875 24.703125 23.78125 
L 21.578125 24.515625 
Q 13.234375 26.265625 9.515625 29.90625 
Q 5.8125 33.546875 5.8125 39.890625 
Q 5.8125 47.609375 11.28125 51.796875 
Q 16.75 56 26.8125 56 
Q 31.78125 56 36.171875 55.265625 
Q 40.578125 54.546875 44.28125 53.078125 
z
" id="DejaVuSans-115"/>
      <path d="M 34.28125 27.484375 
Q 23.390625 27.484375 19.1875 25 
Q 14.984375 22.515625 14.984375 16.5 
Q 14.984375 11.71875 18.140625 8.90625 
Q 21.296875 6.109375 26.703125 6.109375 
Q 34.1875 6.109375 38.703125 11.40625 
Q 43.21875 16.703125 43.21875 25.484375 
L 43.21875 27.484375 
z
M 52.203125 31.203125 
L 52.203125 0 
L 43.21875 0 
L 43.21875 8.296875 
Q 40.140625 3.328125 35.546875 0.953125 
Q 30.953125 -1.421875 24.3125 -1.421875 
Q 15.921875 -1.421875 10.953125 3.296875 
Q 6 8.015625 6 15.921875 
Q 6 25.140625 12.171875 29.828125 
Q 18.359375 34.515625 30.609375 34.515625 
L 43.21875 34.515625 
L 43.21875 35.40625 
Q 43.21875 41.609375 39.140625 45 
Q 35.0625 48.390625 27.6875 48.390625 
Q 23 48.390625 18.546875 47.265625 
Q 14.109375 46.140625 10.015625 43.890625 
L 10.015625 52.203125 
Q 14.9375 54.109375 19.578125 55.046875 
Q 24.21875 56 28.609375 56 
Q 40.484375 56 46.34375 49.84375 
Q 52.203125 43.703125 52.203125 31.203125 
z
" id="DejaVuSans-97"/>
      <path d="M 18.109375 8.203125 
L 18.109375 -20.796875 
L 9.078125 -20.796875 
L 9.078125 54.6875 
L 18.109375 54.6875 
L 18.109375 46.390625 
Q 20.953125 51.265625 25.265625 53.625 
Q 29.59375 56 35.59375 56 
Q 45.5625 56 51.78125 48.09375 
Q 58.015625 40.1875 58.015625 27.296875 
Q 58.015625 14.40625 51.78125 6.484375 
Q 45.5625 -1.421875 35.59375 -1.421875 
Q 29.59375 -1.421875 25.265625 0.953125 
Q 20.953125 3.328125 18.109375 8.203125 
z
M 48.6875 27.296875 
Q 48.6875 37.203125 44.609375 42.84375 
Q 40.53125 48.484375 33.40625 48.484375 
Q 26.265625 48.484375 22.1875 42.84375 
Q 18.109375 37.203125 18.109375 27.296875 
Q 18.109375 17.390625 22.1875 11.75 
Q 26.265625 6.109375 33.40625 6.109375 
Q 40.53125 6.109375 44.609375 11.75 
Q 48.6875 17.390625 48.6875 27.296875 
z
" id="DejaVuSans-112"/>
      <path d="M 9.421875 75.984375 
L 18.40625 75.984375 
L 18.40625 0 
L 9.421875 0 
z
" id="DejaVuSans-108"/>
      <path d="M 4.203125 54.6875 
L 13.1875 54.6875 
L 24.421875 12.015625 
L 35.59375 54.6875 
L 46.1875 54.6875 
L 57.421875 12.015625 
L 68.609375 54.6875 
L 77.59375 54.6875 
L 63.28125 0 
L 52.6875 0 
L 40.921875 44.828125 
L 29.109375 0 
L 18.5 0 
z
" id="DejaVuSans-119"/>
      <path d="M 54.890625 33.015625 
L 54.890625 0 
L 45.90625 0 
L 45.90625 32.71875 
Q 45.90625 40.484375 42.875 44.328125 
Q 39.84375 48.1875 33.796875 48.1875 
Q 26.515625 48.1875 22.3125 43.546875 
Q 18.109375 38.921875 18.109375 30.90625 
L 18.109375 0 
L 9.078125 0 
L 9.078125 75.984375 
L 18.109375 75.984375 
L 18.109375 46.1875 
Q 21.34375 51.125 25.703125 53.5625 
Q 30.078125 56 35.796875 56 
Q 45.21875 56 50.046875 50.171875 
Q 54.890625 44.34375 54.890625 33.015625 
z
" id="DejaVuSans-104"/>
      <path d="M 19.1875 8.296875 
L 53.609375 8.296875 
L 53.609375 0 
L 7.328125 0 
L 7.328125 8.296875 
Q 12.9375 14.109375 22.625 23.890625 
Q 32.328125 33.6875 34.8125 36.53125 
Q 39.546875 41.84375 41.421875 45.53125 
Q 43.3125 49.21875 43.3125 52.78125 
Q 43.3125 58.59375 39.234375 62.25 
Q 35.15625 65.921875 28.609375 65.921875 
Q 23.96875 65.921875 18.8125 64.3125 
Q 13.671875 62.703125 7.8125 59.421875 
L 7.8125 69.390625 
Q 13.765625 71.78125 18.9375 73 
Q 24.125 74.21875 28.421875 74.21875 
Q 39.75 74.21875 46.484375 68.546875 
Q 53.21875 62.890625 53.21875 53.421875 
Q 53.21875 48.921875 51.53125 44.890625 
Q 49.859375 40.875 45.40625 35.40625 
Q 44.1875 33.984375 37.640625 27.21875 
Q 31.109375 20.453125 19.1875 8.296875 
z
" id="DejaVuSans-50"/>
      <path d="M 2.984375 54.6875 
L 12.5 54.6875 
L 29.59375 8.796875 
L 46.6875 54.6875 
L 56.203125 54.6875 
L 35.6875 0 
L 23.484375 0 
z
" id="DejaVuSans-118"/>
     </defs>
     <g transform="translate(97.593125 305.043875)scale(0.12 -0.12)">
      <use xlink:href="#DejaVuSans-100"/>
      <use x="63.476562" xlink:href="#DejaVuSans-105"/>
      <use x="91.259766" xlink:href="#DejaVuSans-102"/>
      <use x="126.464844" xlink:href="#DejaVuSans-102"/>
      <use x="161.669922" xlink:href="#DejaVuSans-101"/>
      <use x="223.193359" xlink:href="#DejaVuSans-114"/>
      <use x="264.275391" xlink:href="#DejaVuSans-101"/>
      <use x="325.798828" xlink:href="#DejaVuSans-110"/>
      <use x="389.177734" xlink:href="#DejaVuSans-116"/>
      <use x="428.386719" xlink:href="#DejaVuSans-32"/>
      <use x="460.173828" xlink:href="#DejaVuSans-110"/>
      <use x="523.552734" xlink:href="#DejaVuSans-117"/>
      <use x="586.931641" xlink:href="#DejaVuSans-109"/>
      <use x="684.34375" xlink:href="#DejaVuSans-98"/>
      <use x="747.820312" xlink:href="#DejaVuSans-101"/>
      <use x="809.34375" xlink:href="#DejaVuSans-114"/>
      <use x="850.457031" xlink:href="#DejaVuSans-32"/>
      <use x="882.244141" xlink:href="#DejaVuSans-111"/>
      <use x="943.425781" xlink:href="#DejaVuSans-102"/>
      <use x="978.630859" xlink:href="#DejaVuSans-32"/>
      <use x="1010.417969" xlink:href="#DejaVuSans-115"/>
      <use x="1062.517578" xlink:href="#DejaVuSans-97"/>
      <use x="1123.796875" xlink:href="#DejaVuSans-109"/>
      <use x="1221.208984" xlink:href="#DejaVuSans-112"/>
      <use x="1284.685547" xlink:href="#DejaVuSans-108"/>
      <use x="1312.46875" xlink:href="#DejaVuSans-101"/>
      <use x="1373.992188" xlink:href="#DejaVuSans-115"/>
      <use x="1426.091797" xlink:href="#DejaVuSans-32"/>
      <use x="1457.878906" xlink:href="#DejaVuSans-119"/>
      <use x="1539.666016" xlink:href="#DejaVuSans-105"/>
      <use x="1567.449219" xlink:href="#DejaVuSans-116"/>
      <use x="1606.658203" xlink:href="#DejaVuSans-104"/>
      <use x="1670.037109" xlink:href="#DejaVuSans-32"/>
      <use x="1701.824219" xlink:href="#DejaVuSans-50"/>
      <use x="1765.447266" xlink:href="#DejaVuSans-48"/>
      <use x="1829.070312" xlink:href="#DejaVuSans-32"/>
      <use x="1860.857422" xlink:href="#DejaVuSans-118"/>
      <use x="1920.037109" xlink:href="#DejaVuSans-97"/>
      <use x="1981.316406" xlink:href="#DejaVuSans-114"/>
      <use x="2022.429688" xlink:href="#DejaVuSans-105"/>
      <use x="2050.212891" xlink:href="#DejaVuSans-97"/>
      <use x="2111.492188" xlink:href="#DejaVuSans-98"/>
      <use x="2174.96875" xlink:href="#DejaVuSans-108"/>
      <use x="2202.751953" xlink:href="#DejaVuSans-101"/>
      <use x="2264.275391" xlink:href="#DejaVuSans-115"/>
     </g>
    </g>
   </g>
   <g id="matplotlib.axis_2">
    <g id="ytick_1">
     <g id="line2d_5">
      <defs>
       <path d="M 0 0 
L -3.5 0 
" id="m6b725e32de" style="stroke:#000000;stroke-width:0.8;"/>
      </defs>
      <g>
       <use style="stroke:#000000;stroke-width:0.8;" x="58.01375" xlink:href="#m6b725e32de" y="263.456"/>
      </g>
     </g>
     <g id="text_6">
      <!-- $10^{-2}$ -->
      <defs>
       <path d="M 10.59375 35.5 
L 73.1875 35.5 
L 73.1875 27.203125 
L 10.59375 27.203125 
z
" id="DejaVuSans-8722"/>
      </defs>
      <g transform="translate(22.81375 268.015062)scale(0.12 -0.12)">
       <use transform="translate(0 0.765625)" xlink:href="#DejaVuSans-49"/>
       <use transform="translate(63.623047 0.765625)" xlink:href="#DejaVuSans-48"/>
       <use transform="translate(128.203125 39.046875)scale(0.7)" xlink:href="#DejaVuSans-8722"/>
       <use transform="translate(186.855469 39.046875)scale(0.7)" xlink:href="#DejaVuSans-50"/>
      </g>
     </g>
    </g>
    <g id="ytick_2">
     <g id="line2d_6">
      <g>
       <use style="stroke:#000000;stroke-width:0.8;" x="58.01375" xlink:href="#m6b725e32de" y="214.176"/>
      </g>
     </g>
     <g id="text_7">
      <!-- $10^{-1}$ -->
      <g transform="translate(22.81375 218.735062)scale(0.12 -0.12)">
       <use transform="translate(0 0.684375)" xlink:href="#DejaVuSans-49"/>
       <use transform="translate(63.623047 0.684375)" xlink:href="#DejaVuSans-48"/>
       <use transform="translate(128.203125 38.965625)scale(0.7)" xlink:href="#DejaVuSans-8722"/>
       <use transform="translate(186.855469 38.965625)scale(0.7)" xlink:href="#DejaVuSans-49"/>
      </g>
     </g>
    </g>
    <g id="ytick_3">
     <g id="line2d_7">
      <g>
       <use style="stroke:#000000;stroke-width:0.8;" x="58.01375" xlink:href="#m6b725e32de" y="164.896"/>
      </g>
     </g>
     <g id="text_8">
      <!-- $10^0$ -->
      <g transform="translate(29.89375 169.455062)scale(0.12 -0.12)">
       <use transform="translate(0 0.765625)" xlink:href="#DejaVuSans-49"/>
       <use transform="translate(63.623047 0.765625)" xlink:href="#DejaVuSans-48"/>
       <use transform="translate(128.203125 39.046875)scale(0.7)" xlink:href="#DejaVuSans-48"/>
      </g>
     </g>
    </g>
    <g id="ytick_4">
     <g id="line2d_8">
      <g>
       <use style="stroke:#000000;stroke-width:0.8;" x="58.01375" xlink:href="#m6b725e32de" y="115.616"/>
      </g>
     </g>
     <g id="text_9">
      <!-- $10^1$ -->
      <g transform="translate(29.89375 120.175062)scale(0.12 -0.12)">
       <use transform="translate(0 0.684375)" xlink:href="#DejaVuSans-49"/>
       <use transform="translate(63.623047 0.684375)" xlink:href="#DejaVuSans-48"/>
       <use transform="translate(128.203125 38.965625)scale(0.7)" xlink:href="#DejaVuSans-49"/>
      </g>
     </g>
    </g>
    <g id="ytick_5">
     <g id="line2d_9">
      <g>
       <use style="stroke:#000000;stroke-width:0.8;" x="58.01375" xlink:href="#m6b725e32de" y="66.336"/>
      </g>
     </g>
     <g id="text_10">
      <!-- $10^2$ -->
      <g transform="translate(29.89375 70.895062)scale(0.12 -0.12)">
       <use transform="translate(0 0.765625)" xlink:href="#DejaVuSans-49"/>
       <use transform="translate(63.623047 0.765625)" xlink:href="#DejaVuSans-48"/>
       <use transform="translate(128.203125 39.046875)scale(0.7)" xlink:href="#DejaVuSans-50"/>
      </g>
     </g>
    </g>
    <g id="ytick_6">
     <g id="line2d_10">
      <g>
       <use style="stroke:#000000;stroke-width:0.8;" x="58.01375" xlink:href="#m6b725e32de" y="17.056"/>
      </g>
     </g>
     <g id="text_11">
      <!-- $10^3$ -->
      <defs>
       <path d="M 40.578125 39.3125 
Q 47.65625 37.796875 51.625 33 
Q 55.609375 28.21875 55.609375 21.1875 
Q 55.609375 10.40625 48.1875 4.484375 
Q 40.765625 -1.421875 27.09375 -1.421875 
Q 22.515625 -1.421875 17.65625 -0.515625 
Q 12.796875 0.390625 7.625 2.203125 
L 7.625 11.71875 
Q 11.71875 9.328125 16.59375 8.109375 
Q 21.484375 6.890625 26.8125 6.890625 
Q 36.078125 6.890625 40.9375 10.546875 
Q 45.796875 14.203125 45.796875 21.1875 
Q 45.796875 27.640625 41.28125 31.265625 
Q 36.765625 34.90625 28.71875 34.90625 
L 20.21875 34.90625 
L 20.21875 43.015625 
L 29.109375 43.015625 
Q 36.375 43.015625 40.234375 45.921875 
Q 44.09375 48.828125 44.09375 54.296875 
Q 44.09375 59.90625 40.109375 62.90625 
Q 36.140625 65.921875 28.71875 65.921875 
Q 24.65625 65.921875 20.015625 65.03125 
Q 15.375 64.15625 9.8125 62.3125 
L 9.8125 71.09375 
Q 15.4375 72.65625 20.34375 73.4375 
Q 25.25 74.21875 29.59375 74.21875 
Q 40.828125 74.21875 47.359375 69.109375 
Q 53.90625 64.015625 53.90625 55.328125 
Q 53.90625 49.265625 50.4375 45.09375 
Q 46.96875 40.921875 40.578125 39.3125 
z
" id="DejaVuSans-51"/>
      </defs>
      <g transform="translate(29.89375 21.615062)scale(0.12 -0.12)">
       <use transform="translate(0 0.765625)" xlink:href="#DejaVuSans-49"/>
       <use transform="translate(63.623047 0.765625)" xlink:href="#DejaVuSans-48"/>
       <use transform="translate(128.203125 39.046875)scale(0.7)" xlink:href="#DejaVuSans-51"/>
      </g>
     </g>
    </g>
    <g id="text_12">
     <!-- seconds spent -->
     <defs>
      <path d="M 48.78125 52.59375 
L 48.78125 44.1875 
Q 44.96875 46.296875 41.140625 47.34375 
Q 37.3125 48.390625 33.40625 48.390625 
Q 24.65625 48.390625 19.8125 42.84375 
Q 14.984375 37.3125 14.984375 27.296875 
Q 14.984375 17.28125 19.8125 11.734375 
Q 24.65625 6.203125 33.40625 6.203125 
Q 37.3125 6.203125 41.140625 7.25 
Q 44.96875 8.296875 48.78125 10.40625 
L 48.78125 2.09375 
Q 45.015625 0.34375 40.984375 -0.53125 
Q 36.96875 -1.421875 32.421875 -1.421875 
Q 20.0625 -1.421875 12.78125 6.34375 
Q 5.515625 14.109375 5.515625 27.296875 
Q 5.515625 40.671875 12.859375 48.328125 
Q 20.21875 56 33.015625 56 
Q 37.15625 56 41.109375 55.140625 
Q 45.0625 54.296875 48.78125 52.59375 
z
" id="DejaVuSans-99"/>
     </defs>
     <g transform="translate(16.318125 183.469125)rotate(-90)scale(0.12 -0.12)">
      <use xlink:href="#DejaVuSans-115"/>
      <use x="52.099609" xlink:href="#DejaVuSans-101"/>
      <use x="113.623047" xlink:href="#DejaVuSans-99"/>
      <use x="168.603516" xlink:href="#DejaVuSans-111"/>
      <use x="229.785156" xlink:href="#DejaVuSans-110"/>
      <use x="293.164062" xlink:href="#DejaVuSans-100"/>
      <use x="356.640625" xlink:href="#DejaVuSans-115"/>
      <use x="408.740234" xlink:href="#DejaVuSans-32"/>
      <use x="440.527344" xlink:href="#DejaVuSans-115"/>
      <use x="492.626953" xlink:href="#DejaVuSans-112"/>
      <use x="556.103516" xlink:href="#DejaVuSans-101"/>
      <use x="617.626953" xlink:href="#DejaVuSans-110"/>
      <use x="681.005859" xlink:href="#DejaVuSans-116"/>
     </g>
    </g>
   </g>
   <g id="patch_3">
    <path d="M 58.01375 273.312 
L 58.01375 7.2 
" style="fill:none;stroke:#000000;stroke-linecap:square;stroke-linejoin:miter;stroke-width:0.8;"/>
   </g>
   <g id="patch_4">
    <path d="M 415.13375 273.312 
L 415.13375 7.2 
" style="fill:none;stroke:#000000;stroke-linecap:square;stroke-linejoin:miter;stroke-width:0.8;"/>
   </g>
   <g id="patch_5">
    <path d="M 58.01375 273.312 
L 415.13375 273.312 
" style="fill:none;stroke:#000000;stroke-linecap:square;stroke-linejoin:miter;stroke-width:0.8;"/>
   </g>
   <g id="patch_6">
    <path d="M 58.01375 7.2 
L 415.13375 7.2 
" style="fill:none;stroke:#000000;stroke-linecap:square;stroke-linejoin:miter;stroke-width:0.8;"/>
   </g>
   <g id="PathCollection_2">
    <defs>
     <path d="M 0 3.162278 
C 0.838646 3.162278 1.643056 2.82908 2.236068 2.236068 
C 2.82908 1.643056 3.162278 0.838646 3.162278 0 
C 3.162278 -0.838646 2.82908 -1.643056 2.236068 -2.236068 
C 1.643056 -2.82908 0.838646 -3.162278 0 -3.162278 
C -0.838646 -3.162278 -1.643056 -2.82908 -2.236068 -2.236068 
C -2.82908 -1.643056 -3.162278 -0.838646 -3.162278 0 
C -3.162278 0.838646 -2.82908 1.643056 -2.236068 2.236068 
C -1.643056 2.82908 -0.838646 3.162278 0 3.162278 
z
" id="md3811019a7" style="stroke:#81b8df;"/>
    </defs>
    <g clip-path="url(#pe95b66070d)">
     <use style="fill:#ffffff;stroke:#81b8df;" x="124.97375" xlink:href="#md3811019a7" y="212.258118"/>
    </g>
   </g>
   <g id="PathCollection_3">
    <defs>
     <path d="M 0 3.162278 
C 0.838646 3.162278 1.643056 2.82908 2.236068 2.236068 
C 2.82908 1.643056 3.162278 0.838646 3.162278 0 
C 3.162278 -0.838646 2.82908 -1.643056 2.236068 -2.236068 
C 1.643056 -2.82908 0.838646 -3.162278 0 -3.162278 
C -0.838646 -3.162278 -1.643056 -2.82908 -2.236068 -2.236068 
C -2.82908 -1.643056 -3.162278 -0.838646 -3.162278 0 
C -3.162278 0.838646 -2.82908 1.643056 -2.236068 2.236068 
C -1.643056 2.82908 -0.838646 3.162278 0 3.162278 
z
" id="m0bb14ef92d" style="stroke:#fe817d;"/>
    </defs>
    <g clip-path="url(#pe95b66070d)">
     <use style="fill:#ffffff;stroke:#fe817d;" x="169.61375" xlink:href="#m0bb14ef92d" y="253.904549"/>
    </g>
   </g>
   <g id="PathCollection_4">
    <g clip-path="url(#pe95b66070d)">
     <use style="fill:#ffffff;stroke:#81b8df;" x="214.25375" xlink:href="#md3811019a7" y="164.237424"/>
    </g>
   </g>
   <g id="PathCollection_5">
    <g clip-path="url(#pe95b66070d)">
     <use style="fill:#ffffff;stroke:#fe817d;" x="258.89375" xlink:href="#m0bb14ef92d" y="199.009421"/>
    </g>
   </g>
   <g id="PathCollection_6">
    <g clip-path="url(#pe95b66070d)">
     <use style="fill:#ffffff;stroke:#81b8df;" x="303.53375" xlink:href="#md3811019a7" y="119.917985"/>
    </g>
   </g>
   <g id="PathCollection_7">
    <g clip-path="url(#pe95b66070d)">
     <use style="fill:#ffffff;stroke:#fe817d;" x="348.17375" xlink:href="#m0bb14ef92d" y="142.76505"/>
    </g>
   </g>
   <g id="PathCollection_8">
    <g clip-path="url(#pe95b66070d)">
     <use style="fill:#ffffff;stroke:#81b8df;" x="392.81375" xlink:href="#md3811019a7" y="63.581658"/>
    </g>
   </g>
   <g id="legend_1">
    <g id="patch_7">
     <path d="M 66.41375 52.0275 
L 175.765625 52.0275 
Q 178.165625 52.0275 178.165625 49.6275 
L 178.165625 15.6 
Q 178.165625 13.2 175.765625 13.2 
L 66.41375 13.2 
Q 64.01375 13.2 64.01375 15.6 
L 64.01375 49.6275 
Q 64.01375 52.0275 66.41375 52.0275 
z
" style="fill:#ffffff;opacity:0.8;stroke:#cccccc;stroke-linejoin:miter;"/>
    </g>
    <g id="patch_8">
     <path d="M 68.81375 27.118125 
L 92.81375 27.118125 
L 92.81375 18.718125 
L 68.81375 18.718125 
z
" style="fill:#fcbbae;stroke:#fe817d;stroke-linejoin:miter;"/>
    </g>
    <g id="text_13">
     <!-- customized -->
     <defs>
      <path d="M 5.515625 54.6875 
L 48.1875 54.6875 
L 48.1875 46.484375 
L 14.40625 7.171875 
L 48.1875 7.171875 
L 48.1875 0 
L 4.296875 0 
L 4.296875 8.203125 
L 38.09375 47.515625 
L 5.515625 47.515625 
z
" id="DejaVuSans-122"/>
     </defs>
     <g transform="translate(102.41375 27.118125)scale(0.12 -0.12)">
      <use xlink:href="#DejaVuSans-99"/>
      <use x="54.980469" xlink:href="#DejaVuSans-117"/>
      <use x="118.359375" xlink:href="#DejaVuSans-115"/>
      <use x="170.458984" xlink:href="#DejaVuSans-116"/>
      <use x="209.667969" xlink:href="#DejaVuSans-111"/>
      <use x="270.849609" xlink:href="#DejaVuSans-109"/>
      <use x="368.261719" xlink:href="#DejaVuSans-105"/>
      <use x="396.044922" xlink:href="#DejaVuSans-122"/>
      <use x="448.535156" xlink:href="#DejaVuSans-101"/>
      <use x="510.058594" xlink:href="#DejaVuSans-100"/>
     </g>
    </g>
    <g id="patch_9">
     <path d="M 68.81375 44.731875 
L 92.81375 44.731875 
L 92.81375 36.331875 
L 68.81375 36.331875 
z
" style="fill:#b1ccdf;stroke:#81b8df;stroke-linejoin:miter;"/>
    </g>
    <g id="text_14">
     <!-- numpy.sum -->
     <defs>
      <path d="M 32.171875 -5.078125 
Q 28.375 -14.84375 24.75 -17.8125 
Q 21.140625 -20.796875 15.09375 -20.796875 
L 7.90625 -20.796875 
L 7.90625 -13.28125 
L 13.1875 -13.28125 
Q 16.890625 -13.28125 18.9375 -11.515625 
Q 21 -9.765625 23.484375 -3.21875 
L 25.09375 0.875 
L 2.984375 54.6875 
L 12.5 54.6875 
L 29.59375 11.921875 
L 46.6875 54.6875 
L 56.203125 54.6875 
z
" id="DejaVuSans-121"/>
      <path d="M 10.6875 12.40625 
L 21 12.40625 
L 21 0 
L 10.6875 0 
z
" id="DejaVuSans-46"/>
     </defs>
     <g transform="translate(102.41375 44.731875)scale(0.12 -0.12)">
      <use xlink:href="#DejaVuSans-110"/>
      <use x="63.378906" xlink:href="#DejaVuSans-117"/>
      <use x="126.757812" xlink:href="#DejaVuSans-109"/>
      <use x="224.169922" xlink:href="#DejaVuSans-112"/>
      <use x="287.646484" xlink:href="#DejaVuSans-121"/>
      <use x="346.607422" xlink:href="#DejaVuSans-46"/>
      <use x="378.394531" xlink:href="#DejaVuSans-115"/>
      <use x="430.494141" xlink:href="#DejaVuSans-117"/>
      <use x="493.873047" xlink:href="#DejaVuSans-109"/>
     </g>
    </g>
   </g>
  </g>
 </g>
 <defs>
  <clipPath id="pe95b66070d">
   <rect height="266.112" width="357.12" x="58.01375" y="7.2"/>
  </clipPath>
 </defs>
</svg>
