<?xml version="1.0" encoding="utf-8" standalone="no"?>
<!DOCTYPE svg PUBLIC "-//W3C//DTD SVG 1.1//EN"
  "http://www.w3.org/Graphics/SVG/1.1/DTD/svg11.dtd">
<!-- Created with matplotlib (https://matplotlib.org/) -->
<svg height="314.7395pt" version="1.1" viewBox="0 0 422.33375 314.7395" width="422.33375pt" xmlns="http://www.w3.org/2000/svg" xmlns:xlink="http://www.w3.org/1999/xlink">
 <defs>
  <style type="text/css">
*{stroke-linecap:butt;stroke-linejoin:round;}
  </style>
 </defs>
 <g id="figure_1">
  <g id="patch_1">
   <path d="M 0 314.7395 
L 422.33375 314.7395 
L 422.33375 0 
L 0 0 
z
" style="fill:#ffffff;"/>
  </g>
  <g id="axes_1">
   <g id="patch_2">
    <path d="M 58.01375 273.312 
L 415.13375 273.312 
L 415.13375 7.2 
L 58.01375 7.2 
z
" style="fill:#ffffff;"/>
   </g>
   <g id="PolyCollection_1">
    <defs>
     <path d="M 147.29375 -307.5395 
L 147.29375 -41.4275 
L 236.57375 -41.4275 
L 236.57375 -307.5395 
L 236.57375 -307.5395 
L 147.29375 -307.5395 
z
" id="m1fdf7d4f97" style="stroke:#f1f1f1;"/>
    </defs>
    <g clip-path="url(#p46364fad63)">
     <use style="fill:#f1f1f1;stroke:#f1f1f1;" x="0" xlink:href="#m1fdf7d4f97" y="314.7395"/>
    </g>
   </g>
   <g id="PolyCollection_2">
    <defs>
     <path d="M 325.85375 -307.5395 
L 325.85375 -41.4275 
L 415.13375 -41.4275 
L 415.13375 -307.5395 
L 415.13375 -307.5395 
L 325.85375 -307.5395 
z
" id="m2cd0dc7364" style="stroke:#f1f1f1;"/>
    </defs>
    <g clip-path="url(#p46364fad63)">
     <use style="fill:#f1f1f1;stroke:#f1f1f1;" x="0" xlink:href="#m2cd0dc7364" y="314.7395"/>
    </g>
   </g>
   <g id="PolyCollection_3">
    <defs>
     <path d="M 93.165454 -84.347486 
L 67.502046 -84.347486 
L 67.333347 -84.628368 
L 67.195359 -84.90925 
L 67.087887 -85.190132 
L 67.010403 -85.471013 
L 66.962068 -85.751895 
L 66.94175 -86.032777 
L 66.948053 -86.313659 
L 66.979345 -86.594541 
L 67.033794 -86.875422 
L 67.109402 -87.156304 
L 67.204043 -87.437186 
L 67.315497 -87.718068 
L 67.441491 -87.998949 
L 67.579727 -88.279831 
L 67.727922 -88.560713 
L 67.883834 -88.841595 
L 68.04529 -89.122477 
L 68.210208 -89.403358 
L 68.376619 -89.68424 
L 68.542681 -89.965122 
L 68.706691 -90.246004 
L 68.867098 -90.526885 
L 69.0225 -90.807767 
L 69.171657 -91.088649 
L 69.313481 -91.369531 
L 69.447041 -91.650413 
L 69.571554 -91.931294 
L 69.686382 -92.212176 
L 69.791026 -92.493058 
L 69.885121 -92.77394 
L 69.968422 -93.054821 
L 70.040806 -93.335703 
L 70.10226 -93.616585 
L 70.152878 -93.897467 
L 70.192851 -94.178349 
L 70.222468 -94.45923 
L 70.242106 -94.740112 
L 70.25223 -95.020994 
L 70.253387 -95.301876 
L 70.246203 -95.582757 
L 70.23138 -95.863639 
L 70.209692 -96.144521 
L 70.181979 -96.425403 
L 70.149144 -96.706285 
L 70.11215 -96.987166 
L 70.072009 -97.268048 
L 70.029778 -97.54893 
L 69.98655 -97.829812 
L 69.943447 -98.110693 
L 69.901606 -98.391575 
L 69.862174 -98.672457 
L 69.82629 -98.953339 
L 69.795079 -99.234221 
L 69.769637 -99.515102 
L 69.751017 -99.795984 
L 69.740219 -100.076866 
L 69.738175 -100.357748 
L 69.745743 -100.638629 
L 69.763687 -100.919511 
L 69.792678 -101.200393 
L 69.833275 -101.481275 
L 69.885927 -101.762157 
L 69.950961 -102.043038 
L 70.028583 -102.32392 
L 70.118875 -102.604802 
L 70.221794 -102.885684 
L 70.337176 -103.166565 
L 70.464741 -103.447447 
L 70.604096 -103.728329 
L 70.754747 -104.009211 
L 70.916105 -104.290093 
L 71.087499 -104.570974 
L 71.268187 -104.851856 
L 71.457367 -105.132738 
L 71.654193 -105.41362 
L 71.857787 -105.694501 
L 72.067252 -105.975383 
L 72.281685 -106.256265 
L 72.50019 -106.537147 
L 72.72189 -106.818029 
L 72.945937 -107.09891 
L 73.17152 -107.379792 
L 73.397875 -107.660674 
L 73.624291 -107.941556 
L 73.850114 -108.222438 
L 74.074751 -108.503319 
L 74.297672 -108.784201 
L 74.518409 -109.065083 
L 74.736557 -109.345965 
L 74.951769 -109.626846 
L 75.163755 -109.907728 
L 75.372276 -110.18861 
L 75.577141 -110.469492 
L 75.778198 -110.750374 
L 75.97533 -111.031255 
L 76.168449 -111.312137 
L 76.35749 -111.593019 
L 76.542405 -111.873901 
L 76.723155 -112.154782 
L 83.944345 -112.154782 
L 83.944345 -112.154782 
L 84.125095 -111.873901 
L 84.31001 -111.593019 
L 84.499051 -111.312137 
L 84.69217 -111.031255 
L 84.889302 -110.750374 
L 85.090359 -110.469492 
L 85.295224 -110.18861 
L 85.503745 -109.907728 
L 85.715731 -109.626846 
L 85.930943 -109.345965 
L 86.149091 -109.065083 
L 86.369828 -108.784201 
L 86.592749 -108.503319 
L 86.817386 -108.222438 
L 87.043209 -107.941556 
L 87.269625 -107.660674 
L 87.49598 -107.379792 
L 87.721563 -107.09891 
L 87.94561 -106.818029 
L 88.16731 -106.537147 
L 88.385815 -106.256265 
L 88.600248 -105.975383 
L 88.809713 -105.694501 
L 89.013307 -105.41362 
L 89.210133 -105.132738 
L 89.399313 -104.851856 
L 89.580001 -104.570974 
L 89.751395 -104.290093 
L 89.912753 -104.009211 
L 90.063404 -103.728329 
L 90.202759 -103.447447 
L 90.330324 -103.166565 
L 90.445706 -102.885684 
L 90.548625 -102.604802 
L 90.638917 -102.32392 
L 90.716539 -102.043038 
L 90.781573 -101.762157 
L 90.834225 -101.481275 
L 90.874822 -101.200393 
L 90.903813 -100.919511 
L 90.921757 -100.638629 
L 90.929325 -100.357748 
L 90.927281 -100.076866 
L 90.916483 -99.795984 
L 90.897863 -99.515102 
L 90.872421 -99.234221 
L 90.84121 -98.953339 
L 90.805326 -98.672457 
L 90.765894 -98.391575 
L 90.724053 -98.110693 
L 90.68095 -97.829812 
L 90.637722 -97.54893 
L 90.595491 -97.268048 
L 90.55535 -96.987166 
L 90.518356 -96.706285 
L 90.485521 -96.425403 
L 90.457808 -96.144521 
L 90.43612 -95.863639 
L 90.421297 -95.582757 
L 90.414113 -95.301876 
L 90.41527 -95.020994 
L 90.425394 -94.740112 
L 90.445032 -94.45923 
L 90.474649 -94.178349 
L 90.514622 -93.897467 
L 90.56524 -93.616585 
L 90.626694 -93.335703 
L 90.699078 -93.054821 
L 90.782379 -92.77394 
L 90.876474 -92.493058 
L 90.981118 -92.212176 
L 91.095946 -91.931294 
L 91.220459 -91.650413 
L 91.354019 -91.369531 
L 91.495843 -91.088649 
L 91.645 -90.807767 
L 91.800402 -90.526885 
L 91.960809 -90.246004 
L 92.124819 -89.965122 
L 92.290881 -89.68424 
L 92.457292 -89.403358 
L 92.62221 -89.122477 
L 92.783666 -88.841595 
L 92.939578 -88.560713 
L 93.087773 -88.279831 
L 93.226009 -87.998949 
L 93.352003 -87.718068 
L 93.463457 -87.437186 
L 93.558098 -87.156304 
L 93.633706 -86.875422 
L 93.688155 -86.594541 
L 93.719447 -86.313659 
L 93.72575 -86.032777 
L 93.705432 -85.751895 
L 93.657097 -85.471013 
L 93.579613 -85.190132 
L 93.472141 -84.90925 
L 93.334153 -84.628368 
L 93.165454 -84.347486 
z
" id="md24f7e6fb2" style="stroke:#fe817d;"/>
    </defs>
    <g clip-path="url(#p46364fad63)">
     <use style="fill:#fcbbae;stroke:#fe817d;" x="0" xlink:href="#md24f7e6fb2" y="314.7395"/>
    </g>
   </g>
   <g id="PolyCollection_4">
    <defs>
     <path d="M 134.873229 -154.619225 
L 115.074271 -154.619225 
L 114.698621 -154.862064 
L 114.337598 -155.104902 
L 113.993086 -155.347741 
L 113.66683 -155.590579 
L 113.360428 -155.833418 
L 113.075315 -156.076256 
L 112.812757 -156.319095 
L 112.573847 -156.561933 
L 112.3595 -156.804772 
L 112.170453 -157.04761 
L 112.007271 -157.290448 
L 111.870343 -157.533287 
L 111.759894 -157.776125 
L 111.675984 -158.018964 
L 111.618515 -158.261802 
L 111.587238 -158.504641 
L 111.58175 -158.747479 
L 111.601506 -158.990318 
L 111.645815 -159.233156 
L 111.713841 -159.475995 
L 111.804608 -159.718833 
L 111.916995 -159.961672 
L 112.049738 -160.20451 
L 112.201427 -160.447348 
L 112.370511 -160.690187 
L 112.555295 -160.933025 
L 112.753945 -161.175864 
L 112.964496 -161.418702 
L 113.184854 -161.661541 
L 113.412813 -161.904379 
L 113.646066 -162.147218 
L 113.882223 -162.390056 
L 114.118834 -162.632895 
L 114.353411 -162.875733 
L 114.583457 -163.118572 
L 114.806495 -163.36141 
L 115.0201 -163.604248 
L 115.221934 -163.847087 
L 115.409777 -164.089925 
L 115.581567 -164.332764 
L 115.735425 -164.575602 
L 115.869697 -164.818441 
L 115.982974 -165.061279 
L 116.074126 -165.304118 
L 116.142319 -165.546956 
L 116.187039 -165.789795 
L 116.208098 -166.032633 
L 116.205649 -166.275472 
L 116.180186 -166.51831 
L 116.132542 -166.761148 
L 116.063877 -167.003987 
L 115.97567 -167.246825 
L 115.869692 -167.489664 
L 115.747991 -167.732502 
L 115.612853 -167.975341 
L 115.466776 -168.218179 
L 115.312433 -168.461018 
L 115.152627 -168.703856 
L 114.990256 -168.946695 
L 114.828267 -169.189533 
L 114.669614 -169.432371 
L 114.517212 -169.67521 
L 114.373896 -169.918048 
L 114.242381 -170.160887 
L 114.125222 -170.403725 
L 114.024778 -170.646564 
L 113.943181 -170.889402 
L 113.882305 -171.132241 
L 113.843749 -171.375079 
L 113.828811 -171.617918 
L 113.83848 -171.860756 
L 113.873426 -172.103595 
L 113.933998 -172.346433 
L 114.020231 -172.589271 
L 114.131846 -172.83211 
L 114.268273 -173.074948 
L 114.428665 -173.317787 
L 114.611919 -173.560625 
L 114.816706 -173.803464 
L 115.041495 -174.046302 
L 115.284592 -174.289141 
L 115.544164 -174.531979 
L 115.818279 -174.774818 
L 116.104938 -175.017656 
L 116.402108 -175.260495 
L 116.707753 -175.503333 
L 117.019863 -175.746171 
L 117.336486 -175.98901 
L 117.655745 -176.231848 
L 117.975867 -176.474687 
L 118.295191 -176.717525 
L 118.612191 -176.960364 
L 118.925479 -177.203202 
L 119.233814 -177.446041 
L 119.536104 -177.688879 
L 119.831408 -177.931718 
L 120.118929 -178.174556 
L 120.398007 -178.417395 
L 120.668119 -178.660233 
L 129.279381 -178.660233 
L 129.279381 -178.660233 
L 129.549493 -178.417395 
L 129.828571 -178.174556 
L 130.116092 -177.931718 
L 130.411396 -177.688879 
L 130.713686 -177.446041 
L 131.022021 -177.203202 
L 131.335309 -176.960364 
L 131.652309 -176.717525 
L 131.971633 -176.474687 
L 132.291755 -176.231848 
L 132.611014 -175.98901 
L 132.927637 -175.746171 
L 133.239747 -175.503333 
L 133.545392 -175.260495 
L 133.842562 -175.017656 
L 134.129221 -174.774818 
L 134.403336 -174.531979 
L 134.662908 -174.289141 
L 134.906005 -174.046302 
L 135.130794 -173.803464 
L 135.335581 -173.560625 
L 135.518835 -173.317787 
L 135.679227 -173.074948 
L 135.815654 -172.83211 
L 135.927269 -172.589271 
L 136.013502 -172.346433 
L 136.074074 -172.103595 
L 136.10902 -171.860756 
L 136.118689 -171.617918 
L 136.103751 -171.375079 
L 136.065195 -171.132241 
L 136.004319 -170.889402 
L 135.922722 -170.646564 
L 135.822278 -170.403725 
L 135.705119 -170.160887 
L 135.573604 -169.918048 
L 135.430288 -169.67521 
L 135.277886 -169.432371 
L 135.119233 -169.189533 
L 134.957244 -168.946695 
L 134.794873 -168.703856 
L 134.635067 -168.461018 
L 134.480724 -168.218179 
L 134.334647 -167.975341 
L 134.199509 -167.732502 
L 134.077808 -167.489664 
L 133.97183 -167.246825 
L 133.883623 -167.003987 
L 133.814958 -166.761148 
L 133.767314 -166.51831 
L 133.741851 -166.275472 
L 133.739402 -166.032633 
L 133.760461 -165.789795 
L 133.805181 -165.546956 
L 133.873374 -165.304118 
L 133.964526 -165.061279 
L 134.077803 -164.818441 
L 134.212075 -164.575602 
L 134.365933 -164.332764 
L 134.537723 -164.089925 
L 134.725566 -163.847087 
L 134.9274 -163.604248 
L 135.141005 -163.36141 
L 135.364043 -163.118572 
L 135.594089 -162.875733 
L 135.828666 -162.632895 
L 136.065277 -162.390056 
L 136.301434 -162.147218 
L 136.534687 -161.904379 
L 136.762646 -161.661541 
L 136.983004 -161.418702 
L 137.193555 -161.175864 
L 137.392205 -160.933025 
L 137.576989 -160.690187 
L 137.746073 -160.447348 
L 137.897762 -160.20451 
L 138.030505 -159.961672 
L 138.142892 -159.718833 
L 138.233659 -159.475995 
L 138.301685 -159.233156 
L 138.345994 -158.990318 
L 138.36575 -158.747479 
L 138.360262 -158.504641 
L 138.328985 -158.261802 
L 138.271516 -158.018964 
L 138.187606 -157.776125 
L 138.077157 -157.533287 
L 137.940229 -157.290448 
L 137.777047 -157.04761 
L 137.588 -156.804772 
L 137.373653 -156.561933 
L 137.134743 -156.319095 
L 136.872185 -156.076256 
L 136.587072 -155.833418 
L 136.28067 -155.590579 
L 135.954414 -155.347741 
L 135.609902 -155.104902 
L 135.248879 -154.862064 
L 134.873229 -154.619225 
z
" id="mbed6c3c7b5" style="stroke:#81b8df;"/>
    </defs>
    <g clip-path="url(#p46364fad63)">
     <use style="fill:#b1ccdf;stroke:#81b8df;" x="0" xlink:href="#mbed6c3c7b5" y="314.7395"/>
    </g>
   </g>
   <g id="PolyCollection_5">
    <defs>
     <path d="M 174.704094 -114.017003 
L 164.523406 -114.017003 
L 164.220181 -114.316695 
L 163.913748 -114.616387 
L 163.604897 -114.916079 
L 163.294366 -115.215771 
L 162.982822 -115.515463 
L 162.670864 -115.815155 
L 162.359012 -116.114847 
L 162.047714 -116.414539 
L 161.737349 -116.714231 
L 161.428238 -117.013924 
L 161.12066 -117.313616 
L 160.814867 -117.613308 
L 160.511114 -117.913 
L 160.209675 -118.212692 
L 159.910879 -118.512384 
L 159.615135 -118.812076 
L 159.322961 -119.111768 
L 159.035012 -119.41146 
L 158.752108 -119.711152 
L 158.475249 -120.010844 
L 158.205634 -120.310536 
L 157.944673 -120.610229 
L 157.693985 -120.909921 
L 157.455393 -121.209613 
L 157.230913 -121.509305 
L 157.022725 -121.808997 
L 156.833145 -122.108689 
L 156.664584 -122.408381 
L 156.519503 -122.708073 
L 156.400356 -123.007765 
L 156.309533 -123.307457 
L 156.249303 -123.607149 
L 156.22175 -123.906841 
L 156.228711 -124.206534 
L 156.27172 -124.506226 
L 156.351957 -124.805918 
L 156.4702 -125.10561 
L 156.626789 -125.405302 
L 156.821598 -125.704994 
L 157.05402 -126.004686 
L 157.322958 -126.304378 
L 157.626837 -126.60407 
L 157.96362 -126.903762 
L 158.330834 -127.203454 
L 158.725614 -127.503146 
L 159.144748 -127.802839 
L 159.584734 -128.102531 
L 160.041839 -128.402223 
L 160.512167 -128.701915 
L 160.991719 -129.001607 
L 161.476466 -129.301299 
L 161.962411 -129.600991 
L 162.445648 -129.900683 
L 162.922421 -130.200375 
L 163.38917 -130.500067 
L 163.84258 -130.799759 
L 164.279608 -131.099452 
L 164.69752 -131.399144 
L 165.093902 -131.698836 
L 165.466679 -131.998528 
L 165.814115 -132.29822 
L 166.134817 -132.597912 
L 166.427723 -132.897604 
L 166.692096 -133.197296 
L 166.927509 -133.496988 
L 167.133824 -133.79668 
L 167.311179 -134.096372 
L 167.459966 -134.396064 
L 167.580814 -134.695757 
L 167.674566 -134.995449 
L 167.742269 -135.295141 
L 167.78515 -135.594833 
L 167.804605 -135.894525 
L 167.802184 -136.194217 
L 167.779579 -136.493909 
L 167.738607 -136.793601 
L 167.681199 -137.093293 
L 167.609389 -137.392985 
L 167.525296 -137.692677 
L 167.43111 -137.992369 
L 167.329071 -138.292062 
L 167.221457 -138.591754 
L 167.110553 -138.891446 
L 166.998635 -139.191138 
L 166.88794 -139.49083 
L 166.780643 -139.790522 
L 166.678824 -140.090214 
L 166.584444 -140.389906 
L 166.499318 -140.689598 
L 166.425083 -140.98929 
L 166.363179 -141.288982 
L 166.314825 -141.588674 
L 166.281002 -141.888367 
L 166.262437 -142.188059 
L 166.259595 -142.487751 
L 166.272678 -142.787443 
L 166.301622 -143.087135 
L 166.346108 -143.386827 
L 166.405573 -143.686519 
L 172.821927 -143.686519 
L 172.821927 -143.686519 
L 172.881392 -143.386827 
L 172.925878 -143.087135 
L 172.954822 -142.787443 
L 172.967905 -142.487751 
L 172.965063 -142.188059 
L 172.946498 -141.888367 
L 172.912675 -141.588674 
L 172.864321 -141.288982 
L 172.802417 -140.98929 
L 172.728182 -140.689598 
L 172.643056 -140.389906 
L 172.548676 -140.090214 
L 172.446857 -139.790522 
L 172.33956 -139.49083 
L 172.228865 -139.191138 
L 172.116947 -138.891446 
L 172.006043 -138.591754 
L 171.898429 -138.292062 
L 171.79639 -137.992369 
L 171.702204 -137.692677 
L 171.618111 -137.392985 
L 171.546301 -137.093293 
L 171.488893 -136.793601 
L 171.447921 -136.493909 
L 171.425316 -136.194217 
L 171.422895 -135.894525 
L 171.44235 -135.594833 
L 171.485231 -135.295141 
L 171.552934 -134.995449 
L 171.646686 -134.695757 
L 171.767534 -134.396064 
L 171.916321 -134.096372 
L 172.093676 -133.79668 
L 172.299991 -133.496988 
L 172.535404 -133.197296 
L 172.799777 -132.897604 
L 173.092683 -132.597912 
L 173.413385 -132.29822 
L 173.760821 -131.998528 
L 174.133598 -131.698836 
L 174.52998 -131.399144 
L 174.947892 -131.099452 
L 175.38492 -130.799759 
L 175.83833 -130.500067 
L 176.305079 -130.200375 
L 176.781852 -129.900683 
L 177.265089 -129.600991 
L 177.751034 -129.301299 
L 178.235781 -129.001607 
L 178.715333 -128.701915 
L 179.185661 -128.402223 
L 179.642766 -128.102531 
L 180.082752 -127.802839 
L 180.501886 -127.503146 
L 180.896666 -127.203454 
L 181.26388 -126.903762 
L 181.600663 -126.60407 
L 181.904542 -126.304378 
L 182.17348 -126.004686 
L 182.405902 -125.704994 
L 182.600711 -125.405302 
L 182.7573 -125.10561 
L 182.875543 -124.805918 
L 182.95578 -124.506226 
L 182.998789 -124.206534 
L 183.00575 -123.906841 
L 182.978197 -123.607149 
L 182.917967 -123.307457 
L 182.827144 -123.007765 
L 182.707997 -122.708073 
L 182.562916 -122.408381 
L 182.394355 -122.108689 
L 182.204775 -121.808997 
L 181.996587 -121.509305 
L 181.772107 -121.209613 
L 181.533515 -120.909921 
L 181.282827 -120.610229 
L 181.021866 -120.310536 
L 180.752251 -120.010844 
L 180.475392 -119.711152 
L 180.192488 -119.41146 
L 179.904539 -119.111768 
L 179.612365 -118.812076 
L 179.316621 -118.512384 
L 179.017825 -118.212692 
L 178.716386 -117.913 
L 178.412633 -117.613308 
L 178.10684 -117.313616 
L 177.799262 -117.013924 
L 177.490151 -116.714231 
L 177.179786 -116.414539 
L 176.868488 -116.114847 
L 176.556636 -115.815155 
L 176.244678 -115.515463 
L 175.933134 -115.215771 
L 175.622603 -114.916079 
L 175.313752 -114.616387 
L 175.007319 -114.316695 
L 174.704094 -114.017003 
z
" id="m240523f693" style="stroke:#fe817d;"/>
    </defs>
    <g clip-path="url(#p46364fad63)">
     <use style="fill:#fcbbae;stroke:#fe817d;" x="0" xlink:href="#m240523f693" y="314.7395"/>
    </g>
   </g>
   <g id="PolyCollection_6">
    <defs>
     <path d="M 223.91159 -187.279931 
L 204.59591 -187.279931 
L 204.254702 -187.51308 
L 203.926768 -187.746229 
L 203.61314 -187.979378 
L 203.31469 -188.212527 
L 203.032135 -188.445676 
L 202.766047 -188.678825 
L 202.516862 -188.911974 
L 202.284897 -189.145122 
L 202.070364 -189.378271 
L 201.87339 -189.61142 
L 201.694031 -189.844569 
L 201.532293 -190.077718 
L 201.388145 -190.310867 
L 201.261536 -190.544016 
L 201.152405 -190.777165 
L 201.06069 -191.010313 
L 200.986337 -191.243462 
L 200.929299 -191.476611 
L 200.889541 -191.70976 
L 200.867034 -191.942909 
L 200.86175 -192.176058 
L 200.873659 -192.409207 
L 200.902716 -192.642356 
L 200.948853 -192.875504 
L 201.011969 -193.108653 
L 201.091917 -193.341802 
L 201.188497 -193.574951 
L 201.301445 -193.8081 
L 201.430424 -194.041249 
L 201.575015 -194.274398 
L 201.734716 -194.507547 
L 201.908935 -194.740695 
L 202.096989 -194.973844 
L 202.298103 -195.206993 
L 202.51141 -195.440142 
L 202.735956 -195.673291 
L 202.970705 -195.90644 
L 203.214542 -196.139589 
L 203.466284 -196.372738 
L 203.724682 -196.605887 
L 203.988439 -196.839035 
L 204.25621 -197.072184 
L 204.526622 -197.305333 
L 204.79828 -197.538482 
L 205.069781 -197.771631 
L 205.339726 -198.00478 
L 205.606735 -198.237929 
L 205.869458 -198.471078 
L 206.126593 -198.704226 
L 206.376893 -198.937375 
L 206.619187 -199.170524 
L 206.85239 -199.403673 
L 207.075517 -199.636822 
L 207.287696 -199.869971 
L 207.488177 -200.10312 
L 207.676346 -200.336269 
L 207.851732 -200.569417 
L 208.014013 -200.802566 
L 208.163023 -201.035715 
L 208.298754 -201.268864 
L 208.421355 -201.502013 
L 208.531133 -201.735162 
L 208.628544 -201.968311 
L 208.71419 -202.20146 
L 208.788807 -202.434608 
L 208.853251 -202.667757 
L 208.908488 -202.900906 
L 208.955573 -203.134055 
L 208.995637 -203.367204 
L 209.029865 -203.600353 
L 209.059475 -203.833502 
L 209.085703 -204.066651 
L 209.109778 -204.299799 
L 209.132906 -204.532948 
L 209.156252 -204.766097 
L 209.18092 -204.999246 
L 209.207942 -205.232395 
L 209.238264 -205.465544 
L 209.272732 -205.698693 
L 209.312087 -205.931842 
L 209.356959 -206.16499 
L 209.407864 -206.398139 
L 209.465197 -206.631288 
L 209.529241 -206.864437 
L 209.600167 -207.097586 
L 209.678034 -207.330735 
L 209.762805 -207.563884 
L 209.854344 -207.797033 
L 209.952431 -208.030182 
L 210.056771 -208.26333 
L 210.166999 -208.496479 
L 210.282692 -208.729628 
L 210.403378 -208.962777 
L 210.528548 -209.195926 
L 210.657656 -209.429075 
L 210.790137 -209.662224 
L 210.925408 -209.895373 
L 211.062876 -210.128521 
L 211.201945 -210.36167 
L 217.305555 -210.36167 
L 217.305555 -210.36167 
L 217.444624 -210.128521 
L 217.582092 -209.895373 
L 217.717363 -209.662224 
L 217.849844 -209.429075 
L 217.978952 -209.195926 
L 218.104122 -208.962777 
L 218.224808 -208.729628 
L 218.340501 -208.496479 
L 218.450729 -208.26333 
L 218.555069 -208.030182 
L 218.653156 -207.797033 
L 218.744695 -207.563884 
L 218.829466 -207.330735 
L 218.907333 -207.097586 
L 218.978259 -206.864437 
L 219.042303 -206.631288 
L 219.099636 -206.398139 
L 219.150541 -206.16499 
L 219.195413 -205.931842 
L 219.234768 -205.698693 
L 219.269236 -205.465544 
L 219.299558 -205.232395 
L 219.32658 -204.999246 
L 219.351248 -204.766097 
L 219.374594 -204.532948 
L 219.397722 -204.299799 
L 219.421797 -204.066651 
L 219.448025 -203.833502 
L 219.477635 -203.600353 
L 219.511863 -203.367204 
L 219.551927 -203.134055 
L 219.599012 -202.900906 
L 219.654249 -202.667757 
L 219.718693 -202.434608 
L 219.79331 -202.20146 
L 219.878956 -201.968311 
L 219.976367 -201.735162 
L 220.086145 -201.502013 
L 220.208746 -201.268864 
L 220.344477 -201.035715 
L 220.493487 -200.802566 
L 220.655768 -200.569417 
L 220.831154 -200.336269 
L 221.019323 -200.10312 
L 221.219804 -199.869971 
L 221.431983 -199.636822 
L 221.65511 -199.403673 
L 221.888313 -199.170524 
L 222.130607 -198.937375 
L 222.380907 -198.704226 
L 222.638042 -198.471078 
L 222.900765 -198.237929 
L 223.167774 -198.00478 
L 223.437719 -197.771631 
L 223.70922 -197.538482 
L 223.980878 -197.305333 
L 224.25129 -197.072184 
L 224.519061 -196.839035 
L 224.782818 -196.605887 
L 225.041216 -196.372738 
L 225.292958 -196.139589 
L 225.536795 -195.90644 
L 225.771544 -195.673291 
L 225.99609 -195.440142 
L 226.209397 -195.206993 
L 226.410511 -194.973844 
L 226.598565 -194.740695 
L 226.772784 -194.507547 
L 226.932485 -194.274398 
L 227.077076 -194.041249 
L 227.206055 -193.8081 
L 227.319003 -193.574951 
L 227.415583 -193.341802 
L 227.495531 -193.108653 
L 227.558647 -192.875504 
L 227.604784 -192.642356 
L 227.633841 -192.409207 
L 227.64575 -192.176058 
L 227.640466 -191.942909 
L 227.617959 -191.70976 
L 227.578201 -191.476611 
L 227.521163 -191.243462 
L 227.44681 -191.010313 
L 227.355095 -190.777165 
L 227.245964 -190.544016 
L 227.119355 -190.310867 
L 226.975207 -190.077718 
L 226.813469 -189.844569 
L 226.63411 -189.61142 
L 226.437136 -189.378271 
L 226.222603 -189.145122 
L 225.990638 -188.911974 
L 225.741453 -188.678825 
L 225.475365 -188.445676 
L 225.19281 -188.212527 
L 224.89436 -187.979378 
L 224.580732 -187.746229 
L 224.252798 -187.51308 
L 223.91159 -187.279931 
z
" id="mf203afa1f9" style="stroke:#81b8df;"/>
    </defs>
    <g clip-path="url(#p46364fad63)">
     <use style="fill:#b1ccdf;stroke:#81b8df;" x="0" xlink:href="#mf203afa1f9" y="314.7395"/>
    </g>
   </g>
   <g id="PolyCollection_7">
    <defs>
     <path d="M 263.134889 -181.734479 
L 254.652611 -181.734479 
L 254.476613 -181.938866 
L 254.30543 -182.143253 
L 254.13808 -182.34764 
L 253.973197 -182.552027 
L 253.809074 -182.756414 
L 253.643708 -182.960801 
L 253.474862 -183.165188 
L 253.300145 -183.369575 
L 253.117091 -183.573962 
L 252.923254 -183.778349 
L 252.716306 -183.982737 
L 252.494129 -184.187124 
L 252.254911 -184.391511 
L 251.997233 -184.595898 
L 251.720149 -184.800285 
L 251.423253 -185.004672 
L 251.106732 -185.209059 
L 250.771406 -185.413446 
L 250.418747 -185.617833 
L 250.050884 -185.82222 
L 249.670582 -186.026607 
L 249.281214 -186.230994 
L 248.886702 -186.435381 
L 248.491452 -186.639769 
L 248.100263 -186.844156 
L 247.718231 -187.048543 
L 247.350641 -187.25293 
L 247.002843 -187.457317 
L 246.680135 -187.661704 
L 246.387632 -187.866091 
L 246.130152 -188.070478 
L 245.912092 -188.274865 
L 245.737326 -188.479252 
L 245.609105 -188.683639 
L 245.529983 -188.888026 
L 245.50175 -189.092413 
L 245.525392 -189.2968 
L 245.601065 -189.501188 
L 245.728098 -189.705575 
L 245.905008 -189.909962 
L 246.129537 -190.114349 
L 246.398716 -190.318736 
L 246.708931 -190.523123 
L 247.056015 -190.72751 
L 247.435345 -190.931897 
L 247.84195 -191.136284 
L 248.270624 -191.340671 
L 248.716042 -191.545058 
L 249.172871 -191.749445 
L 249.635885 -191.953832 
L 250.100063 -192.15822 
L 250.560691 -192.362607 
L 251.013436 -192.566994 
L 251.454426 -192.771381 
L 251.880296 -192.975768 
L 252.288235 -193.180155 
L 252.676005 -193.384542 
L 253.041949 -193.588929 
L 253.384983 -193.793316 
L 253.704574 -193.997703 
L 254.000696 -194.20209 
L 254.273788 -194.406477 
L 254.524689 -194.610864 
L 254.754574 -194.815252 
L 254.964879 -195.019639 
L 255.157228 -195.224026 
L 255.333359 -195.428413 
L 255.49505 -195.6328 
L 255.644056 -195.837187 
L 255.782043 -196.041574 
L 255.910547 -196.245961 
L 256.030925 -196.450348 
L 256.144333 -196.654735 
L 256.251706 -196.859122 
L 256.353753 -197.063509 
L 256.450965 -197.267896 
L 256.54363 -197.472284 
L 256.631857 -197.676671 
L 256.715611 -197.881058 
L 256.794752 -198.085445 
L 256.86907 -198.289832 
L 256.938333 -198.494219 
L 257.002325 -198.698606 
L 257.060885 -198.902993 
L 257.11394 -199.10738 
L 257.161526 -199.311767 
L 257.203816 -199.516154 
L 257.241121 -199.720541 
L 257.273896 -199.924928 
L 257.302732 -200.129316 
L 257.32834 -200.333703 
L 257.351529 -200.53809 
L 257.373178 -200.742477 
L 257.394202 -200.946864 
L 257.415522 -201.151251 
L 257.438025 -201.355638 
L 257.462531 -201.560025 
L 257.489767 -201.764412 
L 257.520333 -201.968799 
L 260.267167 -201.968799 
L 260.267167 -201.968799 
L 260.297733 -201.764412 
L 260.324969 -201.560025 
L 260.349475 -201.355638 
L 260.371978 -201.151251 
L 260.393298 -200.946864 
L 260.414322 -200.742477 
L 260.435971 -200.53809 
L 260.45916 -200.333703 
L 260.484768 -200.129316 
L 260.513604 -199.924928 
L 260.546379 -199.720541 
L 260.583684 -199.516154 
L 260.625974 -199.311767 
L 260.67356 -199.10738 
L 260.726615 -198.902993 
L 260.785175 -198.698606 
L 260.849167 -198.494219 
L 260.91843 -198.289832 
L 260.992748 -198.085445 
L 261.071889 -197.881058 
L 261.155643 -197.676671 
L 261.24387 -197.472284 
L 261.336535 -197.267896 
L 261.433747 -197.063509 
L 261.535794 -196.859122 
L 261.643167 -196.654735 
L 261.756575 -196.450348 
L 261.876953 -196.245961 
L 262.005457 -196.041574 
L 262.143444 -195.837187 
L 262.29245 -195.6328 
L 262.454141 -195.428413 
L 262.630272 -195.224026 
L 262.822621 -195.019639 
L 263.032926 -194.815252 
L 263.262811 -194.610864 
L 263.513712 -194.406477 
L 263.786804 -194.20209 
L 264.082926 -193.997703 
L 264.402517 -193.793316 
L 264.745551 -193.588929 
L 265.111495 -193.384542 
L 265.499265 -193.180155 
L 265.907204 -192.975768 
L 266.333074 -192.771381 
L 266.774064 -192.566994 
L 267.226809 -192.362607 
L 267.687437 -192.15822 
L 268.151615 -191.953832 
L 268.614629 -191.749445 
L 269.071458 -191.545058 
L 269.516876 -191.340671 
L 269.94555 -191.136284 
L 270.352155 -190.931897 
L 270.731485 -190.72751 
L 271.078569 -190.523123 
L 271.388784 -190.318736 
L 271.657963 -190.114349 
L 271.882492 -189.909962 
L 272.059402 -189.705575 
L 272.186435 -189.501188 
L 272.262108 -189.2968 
L 272.28575 -189.092413 
L 272.257517 -188.888026 
L 272.178395 -188.683639 
L 272.050174 -188.479252 
L 271.875408 -188.274865 
L 271.657348 -188.070478 
L 271.399868 -187.866091 
L 271.107365 -187.661704 
L 270.784657 -187.457317 
L 270.436859 -187.25293 
L 270.069269 -187.048543 
L 269.687237 -186.844156 
L 269.296048 -186.639769 
L 268.900798 -186.435381 
L 268.506286 -186.230994 
L 268.116918 -186.026607 
L 267.736616 -185.82222 
L 267.368753 -185.617833 
L 267.016094 -185.413446 
L 266.680768 -185.209059 
L 266.364247 -185.004672 
L 266.067351 -184.800285 
L 265.790267 -184.595898 
L 265.532589 -184.391511 
L 265.293371 -184.187124 
L 265.071194 -183.982737 
L 264.864246 -183.778349 
L 264.670409 -183.573962 
L 264.487355 -183.369575 
L 264.312638 -183.165188 
L 264.143792 -182.960801 
L 263.978426 -182.756414 
L 263.814303 -182.552027 
L 263.64942 -182.34764 
L 263.48207 -182.143253 
L 263.310887 -181.938866 
L 263.134889 -181.734479 
z
" id="me1fa1b5dcd" style="stroke:#fe817d;"/>
    </defs>
    <g clip-path="url(#p46364fad63)">
     <use style="fill:#fcbbae;stroke:#fe817d;" x="0" xlink:href="#me1fa1b5dcd" y="314.7395"/>
    </g>
   </g>
   <g id="PolyCollection_8">
    <defs>
     <path d="M 307.93801 -251.536704 
L 299.12949 -251.536704 
L 298.991987 -251.628243 
L 298.861791 -251.719781 
L 298.738726 -251.81132 
L 298.622424 -251.902859 
L 298.512326 -251.994398 
L 298.407702 -252.085937 
L 298.307674 -252.177475 
L 298.211235 -252.269014 
L 298.117283 -252.360553 
L 298.024649 -252.452092 
L 297.932136 -252.543631 
L 297.838549 -252.63517 
L 297.742729 -252.726708 
L 297.643587 -252.818247 
L 297.54013 -252.909786 
L 297.431486 -253.001325 
L 297.316926 -253.092864 
L 297.195874 -253.184403 
L 297.067916 -253.275941 
L 296.932802 -253.36748 
L 296.790441 -253.459019 
L 296.640888 -253.550558 
L 296.484331 -253.642097 
L 296.321069 -253.733636 
L 296.151487 -253.825174 
L 295.976033 -253.916713 
L 295.79519 -254.008252 
L 295.609451 -254.099791 
L 295.419295 -254.19133 
L 295.225166 -254.282869 
L 295.027461 -254.374407 
L 294.826516 -254.465946 
L 294.622604 -254.557485 
L 294.415939 -254.649024 
L 294.206682 -254.740563 
L 293.994963 -254.832101 
L 293.780896 -254.92364 
L 293.564613 -255.015179 
L 293.346289 -255.106718 
L 293.126177 -255.198257 
L 292.90464 -255.289796 
L 292.682185 -255.381334 
L 292.459492 -255.472873 
L 292.237435 -255.564412 
L 292.017103 -255.655951 
L 291.799809 -255.74749 
L 291.587091 -255.839029 
L 291.380703 -255.930567 
L 291.182598 -256.022106 
L 290.994895 -256.113645 
L 290.819848 -256.205184 
L 290.659796 -256.296723 
L 290.517107 -256.388262 
L 290.394127 -256.4798 
L 290.293109 -256.571339 
L 290.216159 -256.662878 
L 290.165166 -256.754417 
L 290.14175 -256.845956 
L 290.147207 -256.937494 
L 290.182462 -257.029033 
L 290.248038 -257.120572 
L 290.344028 -257.212111 
L 290.470082 -257.30365 
L 290.625409 -257.395189 
L 290.808787 -257.486727 
L 291.018589 -257.578266 
L 291.252813 -257.669805 
L 291.509132 -257.761344 
L 291.784949 -257.852883 
L 292.077449 -257.944422 
L 292.383671 -258.03596 
L 292.700572 -258.127499 
L 293.025096 -258.219038 
L 293.354237 -258.310577 
L 293.685104 -258.402116 
L 294.014976 -258.493655 
L 294.341353 -258.585193 
L 294.661999 -258.676732 
L 294.974975 -258.768271 
L 295.278662 -258.85981 
L 295.571778 -258.951349 
L 295.853384 -259.042887 
L 296.122877 -259.134426 
L 296.379983 -259.225965 
L 296.624734 -259.317504 
L 296.857442 -259.409043 
L 297.078669 -259.500582 
L 297.289193 -259.59212 
L 297.489962 -259.683659 
L 297.68206 -259.775198 
L 297.866662 -259.866737 
L 298.044991 -259.958276 
L 298.218282 -260.049815 
L 298.387742 -260.141353 
L 298.554513 -260.232892 
L 298.719647 -260.324431 
L 298.884077 -260.41597 
L 299.048594 -260.507509 
L 299.213838 -260.599048 
L 307.853662 -260.599048 
L 307.853662 -260.599048 
L 308.018906 -260.507509 
L 308.183423 -260.41597 
L 308.347853 -260.324431 
L 308.512987 -260.232892 
L 308.679758 -260.141353 
L 308.849218 -260.049815 
L 309.022509 -259.958276 
L 309.200838 -259.866737 
L 309.38544 -259.775198 
L 309.577538 -259.683659 
L 309.778307 -259.59212 
L 309.988831 -259.500582 
L 310.210058 -259.409043 
L 310.442766 -259.317504 
L 310.687517 -259.225965 
L 310.944623 -259.134426 
L 311.214116 -259.042887 
L 311.495722 -258.951349 
L 311.788838 -258.85981 
L 312.092525 -258.768271 
L 312.405501 -258.676732 
L 312.726147 -258.585193 
L 313.052524 -258.493655 
L 313.382396 -258.402116 
L 313.713263 -258.310577 
L 314.042404 -258.219038 
L 314.366928 -258.127499 
L 314.683829 -258.03596 
L 314.990051 -257.944422 
L 315.282551 -257.852883 
L 315.558368 -257.761344 
L 315.814687 -257.669805 
L 316.048911 -257.578266 
L 316.258713 -257.486727 
L 316.442091 -257.395189 
L 316.597418 -257.30365 
L 316.723472 -257.212111 
L 316.819462 -257.120572 
L 316.885038 -257.029033 
L 316.920293 -256.937494 
L 316.92575 -256.845956 
L 316.902334 -256.754417 
L 316.851341 -256.662878 
L 316.774391 -256.571339 
L 316.673373 -256.4798 
L 316.550393 -256.388262 
L 316.407704 -256.296723 
L 316.247652 -256.205184 
L 316.072605 -256.113645 
L 315.884902 -256.022106 
L 315.686797 -255.930567 
L 315.480409 -255.839029 
L 315.267691 -255.74749 
L 315.050397 -255.655951 
L 314.830065 -255.564412 
L 314.608008 -255.472873 
L 314.385315 -255.381334 
L 314.16286 -255.289796 
L 313.941323 -255.198257 
L 313.721211 -255.106718 
L 313.502887 -255.015179 
L 313.286604 -254.92364 
L 313.072537 -254.832101 
L 312.860818 -254.740563 
L 312.651561 -254.649024 
L 312.444896 -254.557485 
L 312.240984 -254.465946 
L 312.040039 -254.374407 
L 311.842334 -254.282869 
L 311.648205 -254.19133 
L 311.458049 -254.099791 
L 311.27231 -254.008252 
L 311.091467 -253.916713 
L 310.916013 -253.825174 
L 310.746431 -253.733636 
L 310.583169 -253.642097 
L 310.426612 -253.550558 
L 310.277059 -253.459019 
L 310.134698 -253.36748 
L 309.999584 -253.275941 
L 309.871626 -253.184403 
L 309.750574 -253.092864 
L 309.636014 -253.001325 
L 309.52737 -252.909786 
L 309.423913 -252.818247 
L 309.324771 -252.726708 
L 309.228951 -252.63517 
L 309.135364 -252.543631 
L 309.042851 -252.452092 
L 308.950217 -252.360553 
L 308.856265 -252.269014 
L 308.759826 -252.177475 
L 308.659798 -252.085937 
L 308.555174 -251.994398 
L 308.445076 -251.902859 
L 308.328774 -251.81132 
L 308.205709 -251.719781 
L 308.075513 -251.628243 
L 307.93801 -251.536704 
z
" id="m90c544587b" style="stroke:#81b8df;"/>
    </defs>
    <g clip-path="url(#p46364fad63)">
     <use style="fill:#b1ccdf;stroke:#81b8df;" x="0" xlink:href="#m90c544587b" y="314.7395"/>
    </g>
   </g>
   <g id="PolyCollection_9">
    <defs>
     <path d="M 358.241273 -209.657923 
L 338.106227 -209.657923 
L 337.671667 -209.800953 
L 337.255625 -209.943982 
L 336.861681 -210.087011 
L 336.493314 -210.23004 
L 336.153838 -210.373069 
L 335.846352 -210.516098 
L 335.573685 -210.659127 
L 335.338348 -210.802157 
L 335.142486 -210.945186 
L 334.987836 -211.088215 
L 334.875694 -211.231244 
L 334.806886 -211.374273 
L 334.78175 -211.517302 
L 334.800123 -211.660332 
L 334.86134 -211.803361 
L 334.964241 -211.94639 
L 335.107186 -212.089419 
L 335.288085 -212.232448 
L 335.504428 -212.375477 
L 335.753327 -212.518507 
L 336.031568 -212.661536 
L 336.335665 -212.804565 
L 336.661918 -212.947594 
L 337.006478 -213.090623 
L 337.365412 -213.233652 
L 337.734767 -213.376682 
L 338.110635 -213.519711 
L 338.489215 -213.66274 
L 338.86687 -213.805769 
L 339.240182 -213.948798 
L 339.605996 -214.091827 
L 339.961458 -214.234856 
L 340.304052 -214.377886 
L 340.631618 -214.520915 
L 340.942366 -214.663944 
L 341.234886 -214.806973 
L 341.508143 -214.950002 
L 341.761466 -215.093031 
L 341.994532 -215.236061 
L 342.207339 -215.37909 
L 342.40018 -215.522119 
L 342.573606 -215.665148 
L 342.728388 -215.808177 
L 342.865482 -215.951206 
L 342.985983 -216.094236 
L 343.091089 -216.237265 
L 343.182061 -216.380294 
L 343.260188 -216.523323 
L 343.326751 -216.666352 
L 343.383001 -216.809381 
L 343.430128 -216.95241 
L 343.469246 -217.09544 
L 343.501377 -217.238469 
L 343.527445 -217.381498 
L 343.548269 -217.524527 
L 343.564567 -217.667556 
L 343.576961 -217.810585 
L 343.585981 -217.953615 
L 343.592084 -218.096644 
L 343.595663 -218.239673 
L 343.597064 -218.382702 
L 343.5966 -218.525731 
L 343.594569 -218.66876 
L 343.591267 -218.81179 
L 343.587001 -218.954819 
L 343.5821 -219.097848 
L 343.576924 -219.240877 
L 343.57187 -219.383906 
L 343.567371 -219.526935 
L 343.563902 -219.669965 
L 343.56197 -219.812994 
L 343.562113 -219.956023 
L 343.56489 -220.099052 
L 343.570871 -220.242081 
L 343.580626 -220.38511 
L 343.594711 -220.528139 
L 343.613658 -220.671169 
L 343.63796 -220.814198 
L 343.668063 -220.957227 
L 343.704348 -221.100256 
L 343.74713 -221.243285 
L 343.796646 -221.386314 
L 343.853048 -221.529344 
L 343.916404 -221.672373 
L 343.986694 -221.815402 
L 344.063813 -221.958431 
L 344.147571 -222.10146 
L 344.237699 -222.244489 
L 344.333857 -222.387519 
L 344.43564 -222.530548 
L 344.542586 -222.673577 
L 344.654187 -222.816606 
L 344.769897 -222.959635 
L 344.889143 -223.102664 
L 345.011333 -223.245694 
L 345.135865 -223.388723 
L 345.262139 -223.531752 
L 345.389558 -223.674781 
L 345.517542 -223.81781 
L 350.829958 -223.81781 
L 350.829958 -223.81781 
L 350.957942 -223.674781 
L 351.085361 -223.531752 
L 351.211635 -223.388723 
L 351.336167 -223.245694 
L 351.458357 -223.102664 
L 351.577603 -222.959635 
L 351.693313 -222.816606 
L 351.804914 -222.673577 
L 351.91186 -222.530548 
L 352.013643 -222.387519 
L 352.109801 -222.244489 
L 352.199929 -222.10146 
L 352.283687 -221.958431 
L 352.360806 -221.815402 
L 352.431096 -221.672373 
L 352.494452 -221.529344 
L 352.550854 -221.386314 
L 352.60037 -221.243285 
L 352.643152 -221.100256 
L 352.679437 -220.957227 
L 352.70954 -220.814198 
L 352.733842 -220.671169 
L 352.752789 -220.528139 
L 352.766874 -220.38511 
L 352.776629 -220.242081 
L 352.78261 -220.099052 
L 352.785387 -219.956023 
L 352.78553 -219.812994 
L 352.783598 -219.669965 
L 352.780129 -219.526935 
L 352.77563 -219.383906 
L 352.770576 -219.240877 
L 352.7654 -219.097848 
L 352.760499 -218.954819 
L 352.756233 -218.81179 
L 352.752931 -218.66876 
L 352.7509 -218.525731 
L 352.750436 -218.382702 
L 352.751837 -218.239673 
L 352.755416 -218.096644 
L 352.761519 -217.953615 
L 352.770539 -217.810585 
L 352.782933 -217.667556 
L 352.799231 -217.524527 
L 352.820055 -217.381498 
L 352.846123 -217.238469 
L 352.878254 -217.09544 
L 352.917372 -216.95241 
L 352.964499 -216.809381 
L 353.020749 -216.666352 
L 353.087312 -216.523323 
L 353.165439 -216.380294 
L 353.256411 -216.237265 
L 353.361517 -216.094236 
L 353.482018 -215.951206 
L 353.619112 -215.808177 
L 353.773894 -215.665148 
L 353.94732 -215.522119 
L 354.140161 -215.37909 
L 354.352968 -215.236061 
L 354.586034 -215.093031 
L 354.839357 -214.950002 
L 355.112614 -214.806973 
L 355.405134 -214.663944 
L 355.715882 -214.520915 
L 356.043448 -214.377886 
L 356.386042 -214.234856 
L 356.741504 -214.091827 
L 357.107318 -213.948798 
L 357.48063 -213.805769 
L 357.858285 -213.66274 
L 358.236865 -213.519711 
L 358.612733 -213.376682 
L 358.982088 -213.233652 
L 359.341022 -213.090623 
L 359.685582 -212.947594 
L 360.011835 -212.804565 
L 360.315932 -212.661536 
L 360.594173 -212.518507 
L 360.843072 -212.375477 
L 361.059415 -212.232448 
L 361.240314 -212.089419 
L 361.383259 -211.94639 
L 361.48616 -211.803361 
L 361.547377 -211.660332 
L 361.56575 -211.517302 
L 361.540614 -211.374273 
L 361.471806 -211.231244 
L 361.359664 -211.088215 
L 361.205014 -210.945186 
L 361.009152 -210.802157 
L 360.773815 -210.659127 
L 360.501148 -210.516098 
L 360.193662 -210.373069 
L 359.854186 -210.23004 
L 359.485819 -210.087011 
L 359.091875 -209.943982 
L 358.675833 -209.800953 
L 358.241273 -209.657923 
z
" id="m044630467b" style="stroke:#fe817d;"/>
    </defs>
    <g clip-path="url(#p46364fad63)">
     <use style="fill:#fcbbae;stroke:#fe817d;" x="0" xlink:href="#m044630467b" y="314.7395"/>
    </g>
   </g>
   <g id="PolyCollection_10">
    <defs>
     <path d="M 401.750112 -277.640637 
L 383.877388 -277.640637 
L 383.436315 -277.728407 
L 383.005012 -277.816176 
L 382.586425 -277.903945 
L 382.183465 -277.991714 
L 381.798973 -278.079483 
L 381.435683 -278.167252 
L 381.096192 -278.255022 
L 380.782918 -278.342791 
L 380.49808 -278.43056 
L 380.243659 -278.518329 
L 380.02138 -278.606098 
L 379.832686 -278.693868 
L 379.678718 -278.781637 
L 379.560305 -278.869406 
L 379.477949 -278.957175 
L 379.431819 -279.044944 
L 379.42175 -279.132713 
L 379.447245 -279.220483 
L 379.507479 -279.308252 
L 379.601314 -279.396021 
L 379.72731 -279.48379 
L 379.883742 -279.571559 
L 380.068628 -279.659328 
L 380.27975 -279.747098 
L 380.514684 -279.834867 
L 380.770831 -279.922636 
L 381.04545 -280.010405 
L 381.335695 -280.098174 
L 381.638652 -280.185944 
L 381.951375 -280.273713 
L 382.270921 -280.361482 
L 382.594395 -280.449251 
L 382.918979 -280.53702 
L 383.241969 -280.624789 
L 383.56081 -280.712559 
L 383.873121 -280.800328 
L 384.176728 -280.888097 
L 384.469678 -280.975866 
L 384.750269 -281.063635 
L 385.017054 -281.151404 
L 385.268858 -281.239174 
L 385.504778 -281.326943 
L 385.724188 -281.414712 
L 385.926732 -281.502481 
L 386.112313 -281.59025 
L 386.281086 -281.67802 
L 386.433434 -281.765789 
L 386.569956 -281.853558 
L 386.691433 -281.941327 
L 386.798814 -282.029096 
L 386.893182 -282.116865 
L 386.975727 -282.204635 
L 387.047719 -282.292404 
L 387.11048 -282.380173 
L 387.165357 -282.467942 
L 387.213694 -282.555711 
L 387.25681 -282.643481 
L 387.295978 -282.73125 
L 387.332405 -282.819019 
L 387.367215 -282.906788 
L 387.40144 -282.994557 
L 387.436005 -283.082326 
L 387.471726 -283.170096 
L 387.509301 -283.257865 
L 387.549315 -283.345634 
L 387.592239 -283.433403 
L 387.638431 -283.521172 
L 387.688148 -283.608941 
L 387.74155 -283.696711 
L 387.79871 -283.78448 
L 387.859624 -283.872249 
L 387.924223 -283.960018 
L 387.992383 -284.047787 
L 388.063935 -284.135557 
L 388.138679 -284.223326 
L 388.216393 -284.311095 
L 388.296839 -284.398864 
L 388.37978 -284.486633 
L 388.46498 -284.574402 
L 388.552212 -284.662172 
L 388.641267 -284.749941 
L 388.731954 -284.83771 
L 388.824107 -284.925479 
L 388.91758 -285.013248 
L 389.012256 -285.101017 
L 389.108036 -285.188787 
L 389.204847 -285.276556 
L 389.302632 -285.364325 
L 389.401352 -285.452094 
L 389.500976 -285.539863 
L 389.601481 -285.627633 
L 389.702846 -285.715402 
L 389.805046 -285.803171 
L 389.908047 -285.89094 
L 390.011802 -285.978709 
L 390.116247 -286.066478 
L 390.221297 -286.154248 
L 390.326844 -286.242017 
L 390.432751 -286.329786 
L 395.194749 -286.329786 
L 395.194749 -286.329786 
L 395.300656 -286.242017 
L 395.406203 -286.154248 
L 395.511253 -286.066478 
L 395.615698 -285.978709 
L 395.719453 -285.89094 
L 395.822454 -285.803171 
L 395.924654 -285.715402 
L 396.026019 -285.627633 
L 396.126524 -285.539863 
L 396.226148 -285.452094 
L 396.324868 -285.364325 
L 396.422653 -285.276556 
L 396.519464 -285.188787 
L 396.615244 -285.101017 
L 396.70992 -285.013248 
L 396.803393 -284.925479 
L 396.895546 -284.83771 
L 396.986233 -284.749941 
L 397.075288 -284.662172 
L 397.16252 -284.574402 
L 397.24772 -284.486633 
L 397.330661 -284.398864 
L 397.411107 -284.311095 
L 397.488821 -284.223326 
L 397.563565 -284.135557 
L 397.635117 -284.047787 
L 397.703277 -283.960018 
L 397.767876 -283.872249 
L 397.82879 -283.78448 
L 397.88595 -283.696711 
L 397.939352 -283.608941 
L 397.989069 -283.521172 
L 398.035261 -283.433403 
L 398.078185 -283.345634 
L 398.118199 -283.257865 
L 398.155774 -283.170096 
L 398.191495 -283.082326 
L 398.22606 -282.994557 
L 398.260285 -282.906788 
L 398.295095 -282.819019 
L 398.331522 -282.73125 
L 398.37069 -282.643481 
L 398.413806 -282.555711 
L 398.462143 -282.467942 
L 398.51702 -282.380173 
L 398.579781 -282.292404 
L 398.651773 -282.204635 
L 398.734318 -282.116865 
L 398.828686 -282.029096 
L 398.936067 -281.941327 
L 399.057544 -281.853558 
L 399.194066 -281.765789 
L 399.346414 -281.67802 
L 399.515187 -281.59025 
L 399.700768 -281.502481 
L 399.903312 -281.414712 
L 400.122722 -281.326943 
L 400.358642 -281.239174 
L 400.610446 -281.151404 
L 400.877231 -281.063635 
L 401.157822 -280.975866 
L 401.450772 -280.888097 
L 401.754379 -280.800328 
L 402.06669 -280.712559 
L 402.385531 -280.624789 
L 402.708521 -280.53702 
L 403.033105 -280.449251 
L 403.356579 -280.361482 
L 403.676125 -280.273713 
L 403.988848 -280.185944 
L 404.291805 -280.098174 
L 404.58205 -280.010405 
L 404.856669 -279.922636 
L 405.112816 -279.834867 
L 405.34775 -279.747098 
L 405.558872 -279.659328 
L 405.743758 -279.571559 
L 405.90019 -279.48379 
L 406.026186 -279.396021 
L 406.120021 -279.308252 
L 406.180255 -279.220483 
L 406.20575 -279.132713 
L 406.195681 -279.044944 
L 406.149551 -278.957175 
L 406.067195 -278.869406 
L 405.948782 -278.781637 
L 405.794814 -278.693868 
L 405.60612 -278.606098 
L 405.383841 -278.518329 
L 405.12942 -278.43056 
L 404.844582 -278.342791 
L 404.531308 -278.255022 
L 404.191817 -278.167252 
L 403.828527 -278.079483 
L 403.444035 -277.991714 
L 403.041075 -277.903945 
L 402.622488 -277.816176 
L 402.191185 -277.728407 
L 401.750112 -277.640637 
z
" id="m7f6421cdfc" style="stroke:#81b8df;"/>
    </defs>
    <g clip-path="url(#p46364fad63)">
     <use style="fill:#b1ccdf;stroke:#81b8df;" x="0" xlink:href="#m7f6421cdfc" y="314.7395"/>
    </g>
   </g>
   <g id="matplotlib.axis_1">
    <g id="xtick_1">
     <g id="line2d_1">
      <defs>
       <path d="M 0 0 
L 0 3.5 
" id="m64b1e8e85e" style="stroke:#000000;stroke-width:0.8;"/>
      </defs>
      <g>
       <use style="stroke:#000000;stroke-width:0.8;" x="102.65375" xlink:href="#m64b1e8e85e" y="273.312"/>
      </g>
     </g>
     <g id="text_1">
      <!-- $500$ -->
      <defs>
       <path d="M 10.796875 72.90625 
L 49.515625 72.90625 
L 49.515625 64.59375 
L 19.828125 64.59375 
L 19.828125 46.734375 
Q 21.96875 47.46875 24.109375 47.828125 
Q 26.265625 48.1875 28.421875 48.1875 
Q 40.625 48.1875 47.75 41.5 
Q 54.890625 34.8125 54.890625 23.390625 
Q 54.890625 11.625 47.5625 5.09375 
Q 40.234375 -1.421875 26.90625 -1.421875 
Q 22.3125 -1.421875 17.546875 -0.640625 
Q 12.796875 0.140625 7.71875 1.703125 
L 7.71875 11.625 
Q 12.109375 9.234375 16.796875 8.0625 
Q 21.484375 6.890625 26.703125 6.890625 
Q 35.15625 6.890625 40.078125 11.328125 
Q 45.015625 15.765625 45.015625 23.390625 
Q 45.015625 31 40.078125 35.4375 
Q 35.15625 39.890625 26.703125 39.890625 
Q 22.75 39.890625 18.8125 39.015625 
Q 14.890625 38.140625 10.796875 36.28125 
z
" id="DejaVuSans-53"/>
       <path d="M 31.78125 66.40625 
Q 24.171875 66.40625 20.328125 58.90625 
Q 16.5 51.421875 16.5 36.375 
Q 16.5 21.390625 20.328125 13.890625 
Q 24.171875 6.390625 31.78125 6.390625 
Q 39.453125 6.390625 43.28125 13.890625 
Q 47.125 21.390625 47.125 36.375 
Q 47.125 51.421875 43.28125 58.90625 
Q 39.453125 66.40625 31.78125 66.40625 
z
M 31.78125 74.21875 
Q 44.046875 74.21875 50.515625 64.515625 
Q 56.984375 54.828125 56.984375 36.375 
Q 56.984375 17.96875 50.515625 8.265625 
Q 44.046875 -1.421875 31.78125 -1.421875 
Q 19.53125 -1.421875 13.0625 8.265625 
Q 6.59375 17.96875 6.59375 36.375 
Q 6.59375 54.828125 13.0625 64.515625 
Q 19.53125 74.21875 31.78125 74.21875 
z
" id="DejaVuSans-48"/>
      </defs>
      <g transform="translate(91.19375 289.430125)scale(0.12 -0.12)">
       <use transform="translate(0 0.78125)" xlink:href="#DejaVuSans-53"/>
       <use transform="translate(63.623047 0.78125)" xlink:href="#DejaVuSans-48"/>
       <use transform="translate(127.246094 0.78125)" xlink:href="#DejaVuSans-48"/>
      </g>
     </g>
    </g>
    <g id="xtick_2">
     <g id="line2d_2">
      <g>
       <use style="stroke:#000000;stroke-width:0.8;" x="191.93375" xlink:href="#m64b1e8e85e" y="273.312"/>
      </g>
     </g>
     <g id="text_2">
      <!-- $1000$ -->
      <defs>
       <path d="M 12.40625 8.296875 
L 28.515625 8.296875 
L 28.515625 63.921875 
L 10.984375 60.40625 
L 10.984375 69.390625 
L 28.421875 72.90625 
L 38.28125 72.90625 
L 38.28125 8.296875 
L 54.390625 8.296875 
L 54.390625 0 
L 12.40625 0 
z
" id="DejaVuSans-49"/>
      </defs>
      <g transform="translate(176.63375 289.430125)scale(0.12 -0.12)">
       <use transform="translate(0 0.78125)" xlink:href="#DejaVuSans-49"/>
       <use transform="translate(63.623047 0.78125)" xlink:href="#DejaVuSans-48"/>
       <use transform="translate(127.246094 0.78125)" xlink:href="#DejaVuSans-48"/>
       <use transform="translate(190.869141 0.78125)" xlink:href="#DejaVuSans-48"/>
      </g>
     </g>
    </g>
    <g id="xtick_3">
     <g id="line2d_3">
      <g>
       <use style="stroke:#000000;stroke-width:0.8;" x="281.21375" xlink:href="#m64b1e8e85e" y="273.312"/>
      </g>
     </g>
     <g id="text_3">
      <!-- $5000$ -->
      <g transform="translate(265.91375 289.430125)scale(0.12 -0.12)">
       <use transform="translate(0 0.78125)" xlink:href="#DejaVuSans-53"/>
       <use transform="translate(63.623047 0.78125)" xlink:href="#DejaVuSans-48"/>
       <use transform="translate(127.246094 0.78125)" xlink:href="#DejaVuSans-48"/>
       <use transform="translate(190.869141 0.78125)" xlink:href="#DejaVuSans-48"/>
      </g>
     </g>
    </g>
    <g id="xtick_4">
     <g id="line2d_4">
      <g>
       <use style="stroke:#000000;stroke-width:0.8;" x="370.49375" xlink:href="#m64b1e8e85e" y="273.312"/>
      </g>
     </g>
     <g id="text_4">
      <!-- $10000$ -->
      <g transform="translate(351.35375 289.430125)scale(0.12 -0.12)">
       <use transform="translate(0 0.78125)" xlink:href="#DejaVuSans-49"/>
       <use transform="translate(63.623047 0.78125)" xlink:href="#DejaVuSans-48"/>
       <use transform="translate(127.246094 0.78125)" xlink:href="#DejaVuSans-48"/>
       <use transform="translate(190.869141 0.78125)" xlink:href="#DejaVuSans-48"/>
       <use transform="translate(254.492188 0.78125)" xlink:href="#DejaVuSans-48"/>
      </g>
     </g>
    </g>
    <g id="text_5">
     <!-- different number of samples with 20 variables -->
     <defs>
      <path d="M 45.40625 46.390625 
L 45.40625 75.984375 
L 54.390625 75.984375 
L 54.390625 0 
L 45.40625 0 
L 45.40625 8.203125 
Q 42.578125 3.328125 38.25 0.953125 
Q 33.9375 -1.421875 27.875 -1.421875 
Q 17.96875 -1.421875 11.734375 6.484375 
Q 5.515625 14.40625 5.515625 27.296875 
Q 5.515625 40.1875 11.734375 48.09375 
Q 17.96875 56 27.875 56 
Q 33.9375 56 38.25 53.625 
Q 42.578125 51.265625 45.40625 46.390625 
z
M 14.796875 27.296875 
Q 14.796875 17.390625 18.875 11.75 
Q 22.953125 6.109375 30.078125 6.109375 
Q 37.203125 6.109375 41.296875 11.75 
Q 45.40625 17.390625 45.40625 27.296875 
Q 45.40625 37.203125 41.296875 42.84375 
Q 37.203125 48.484375 30.078125 48.484375 
Q 22.953125 48.484375 18.875 42.84375 
Q 14.796875 37.203125 14.796875 27.296875 
z
" id="DejaVuSans-100"/>
      <path d="M 9.421875 54.6875 
L 18.40625 54.6875 
L 18.40625 0 
L 9.421875 0 
z
M 9.421875 75.984375 
L 18.40625 75.984375 
L 18.40625 64.59375 
L 9.421875 64.59375 
z
" id="DejaVuSans-105"/>
      <path d="M 37.109375 75.984375 
L 37.109375 68.5 
L 28.515625 68.5 
Q 23.6875 68.5 21.796875 66.546875 
Q 19.921875 64.59375 19.921875 59.515625 
L 19.921875 54.6875 
L 34.71875 54.6875 
L 34.71875 47.703125 
L 19.921875 47.703125 
L 19.921875 0 
L 10.890625 0 
L 10.890625 47.703125 
L 2.296875 47.703125 
L 2.296875 54.6875 
L 10.890625 54.6875 
L 10.890625 58.5 
Q 10.890625 67.625 15.140625 71.796875 
Q 19.390625 75.984375 28.609375 75.984375 
z
" id="DejaVuSans-102"/>
      <path d="M 56.203125 29.59375 
L 56.203125 25.203125 
L 14.890625 25.203125 
Q 15.484375 15.921875 20.484375 11.0625 
Q 25.484375 6.203125 34.421875 6.203125 
Q 39.59375 6.203125 44.453125 7.46875 
Q 49.3125 8.734375 54.109375 11.28125 
L 54.109375 2.78125 
Q 49.265625 0.734375 44.1875 -0.34375 
Q 39.109375 -1.421875 33.890625 -1.421875 
Q 20.796875 -1.421875 13.15625 6.1875 
Q 5.515625 13.8125 5.515625 26.8125 
Q 5.515625 40.234375 12.765625 48.109375 
Q 20.015625 56 32.328125 56 
Q 43.359375 56 49.78125 48.890625 
Q 56.203125 41.796875 56.203125 29.59375 
z
M 47.21875 32.234375 
Q 47.125 39.59375 43.09375 43.984375 
Q 39.0625 48.390625 32.421875 48.390625 
Q 24.90625 48.390625 20.390625 44.140625 
Q 15.875 39.890625 15.1875 32.171875 
z
" id="DejaVuSans-101"/>
      <path d="M 41.109375 46.296875 
Q 39.59375 47.171875 37.8125 47.578125 
Q 36.03125 48 33.890625 48 
Q 26.265625 48 22.1875 43.046875 
Q 18.109375 38.09375 18.109375 28.8125 
L 18.109375 0 
L 9.078125 0 
L 9.078125 54.6875 
L 18.109375 54.6875 
L 18.109375 46.1875 
Q 20.953125 51.171875 25.484375 53.578125 
Q 30.03125 56 36.53125 56 
Q 37.453125 56 38.578125 55.875 
Q 39.703125 55.765625 41.0625 55.515625 
z
" id="DejaVuSans-114"/>
      <path d="M 54.890625 33.015625 
L 54.890625 0 
L 45.90625 0 
L 45.90625 32.71875 
Q 45.90625 40.484375 42.875 44.328125 
Q 39.84375 48.1875 33.796875 48.1875 
Q 26.515625 48.1875 22.3125 43.546875 
Q 18.109375 38.921875 18.109375 30.90625 
L 18.109375 0 
L 9.078125 0 
L 9.078125 54.6875 
L 18.109375 54.6875 
L 18.109375 46.1875 
Q 21.34375 51.125 25.703125 53.5625 
Q 30.078125 56 35.796875 56 
Q 45.21875 56 50.046875 50.171875 
Q 54.890625 44.34375 54.890625 33.015625 
z
" id="DejaVuSans-110"/>
      <path d="M 18.3125 70.21875 
L 18.3125 54.6875 
L 36.8125 54.6875 
L 36.8125 47.703125 
L 18.3125 47.703125 
L 18.3125 18.015625 
Q 18.3125 11.328125 20.140625 9.421875 
Q 21.96875 7.515625 27.59375 7.515625 
L 36.8125 7.515625 
L 36.8125 0 
L 27.59375 0 
Q 17.1875 0 13.234375 3.875 
Q 9.28125 7.765625 9.28125 18.015625 
L 9.28125 47.703125 
L 2.6875 47.703125 
L 2.6875 54.6875 
L 9.28125 54.6875 
L 9.28125 70.21875 
z
" id="DejaVuSans-116"/>
      <path id="DejaVuSans-32"/>
      <path d="M 8.5 21.578125 
L 8.5 54.6875 
L 17.484375 54.6875 
L 17.484375 21.921875 
Q 17.484375 14.15625 20.5 10.265625 
Q 23.53125 6.390625 29.59375 6.390625 
Q 36.859375 6.390625 41.078125 11.03125 
Q 45.3125 15.671875 45.3125 23.6875 
L 45.3125 54.6875 
L 54.296875 54.6875 
L 54.296875 0 
L 45.3125 0 
L 45.3125 8.40625 
Q 42.046875 3.421875 37.71875 1 
Q 33.40625 -1.421875 27.6875 -1.421875 
Q 18.265625 -1.421875 13.375 4.4375 
Q 8.5 10.296875 8.5 21.578125 
z
M 31.109375 56 
z
" id="DejaVuSans-117"/>
      <path d="M 52 44.1875 
Q 55.375 50.25 60.0625 53.125 
Q 64.75 56 71.09375 56 
Q 79.640625 56 84.28125 50.015625 
Q 88.921875 44.046875 88.921875 33.015625 
L 88.921875 0 
L 79.890625 0 
L 79.890625 32.71875 
Q 79.890625 40.578125 77.09375 44.375 
Q 74.3125 48.1875 68.609375 48.1875 
Q 61.625 48.1875 57.5625 43.546875 
Q 53.515625 38.921875 53.515625 30.90625 
L 53.515625 0 
L 44.484375 0 
L 44.484375 32.71875 
Q 44.484375 40.625 41.703125 44.40625 
Q 38.921875 48.1875 33.109375 48.1875 
Q 26.21875 48.1875 22.15625 43.53125 
Q 18.109375 38.875 18.109375 30.90625 
L 18.109375 0 
L 9.078125 0 
L 9.078125 54.6875 
L 18.109375 54.6875 
L 18.109375 46.1875 
Q 21.1875 51.21875 25.484375 53.609375 
Q 29.78125 56 35.6875 56 
Q 41.65625 56 45.828125 52.96875 
Q 50 49.953125 52 44.1875 
z
" id="DejaVuSans-109"/>
      <path d="M 48.6875 27.296875 
Q 48.6875 37.203125 44.609375 42.84375 
Q 40.53125 48.484375 33.40625 48.484375 
Q 26.265625 48.484375 22.1875 42.84375 
Q 18.109375 37.203125 18.109375 27.296875 
Q 18.109375 17.390625 22.1875 11.75 
Q 26.265625 6.109375 33.40625 6.109375 
Q 40.53125 6.109375 44.609375 11.75 
Q 48.6875 17.390625 48.6875 27.296875 
z
M 18.109375 46.390625 
Q 20.953125 51.265625 25.265625 53.625 
Q 29.59375 56 35.59375 56 
Q 45.5625 56 51.78125 48.09375 
Q 58.015625 40.1875 58.015625 27.296875 
Q 58.015625 14.40625 51.78125 6.484375 
Q 45.5625 -1.421875 35.59375 -1.421875 
Q 29.59375 -1.421875 25.265625 0.953125 
Q 20.953125 3.328125 18.109375 8.203125 
L 18.109375 0 
L 9.078125 0 
L 9.078125 75.984375 
L 18.109375 75.984375 
z
" id="DejaVuSans-98"/>
      <path d="M 30.609375 48.390625 
Q 23.390625 48.390625 19.1875 42.75 
Q 14.984375 37.109375 14.984375 27.296875 
Q 14.984375 17.484375 19.15625 11.84375 
Q 23.34375 6.203125 30.609375 6.203125 
Q 37.796875 6.203125 41.984375 11.859375 
Q 46.1875 17.53125 46.1875 27.296875 
Q 46.1875 37.015625 41.984375 42.703125 
Q 37.796875 48.390625 30.609375 48.390625 
z
M 30.609375 56 
Q 42.328125 56 49.015625 48.375 
Q 55.71875 40.765625 55.71875 27.296875 
Q 55.71875 13.875 49.015625 6.21875 
Q 42.328125 -1.421875 30.609375 -1.421875 
Q 18.84375 -1.421875 12.171875 6.21875 
Q 5.515625 13.875 5.515625 27.296875 
Q 5.515625 40.765625 12.171875 48.375 
Q 18.84375 56 30.609375 56 
z
" id="DejaVuSans-111"/>
      <path d="M 44.28125 53.078125 
L 44.28125 44.578125 
Q 40.484375 46.53125 36.375 47.5 
Q 32.28125 48.484375 27.875 48.484375 
Q 21.1875 48.484375 17.84375 46.4375 
Q 14.5 44.390625 14.5 40.28125 
Q 14.5 37.15625 16.890625 35.375 
Q 19.28125 33.59375 26.515625 31.984375 
L 29.59375 31.296875 
Q 39.15625 29.25 43.1875 25.515625 
Q 47.21875 21.78125 47.21875 15.09375 
Q 47.21875 7.46875 41.1875 3.015625 
Q 35.15625 -1.421875 24.609375 -1.421875 
Q 20.21875 -1.421875 15.453125 -0.5625 
Q 10.6875 0.296875 5.421875 2 
L 5.421875 11.28125 
Q 10.40625 8.6875 15.234375 7.390625 
Q 20.0625 6.109375 24.8125 6.109375 
Q 31.15625 6.109375 34.5625 8.28125 
Q 37.984375 10.453125 37.984375 14.40625 
Q 37.984375 18.0625 35.515625 20.015625 
Q 33.0625 21.96875 24.703125 23.78125 
L 21.578125 24.515625 
Q 13.234375 26.265625 9.515625 29.90625 
Q 5.8125 33.546875 5.8125 39.890625 
Q 5.8125 47.609375 11.28125 51.796875 
Q 16.75 56 26.8125 56 
Q 31.78125 56 36.171875 55.265625 
Q 40.578125 54.546875 44.28125 53.078125 
z
" id="DejaVuSans-115"/>
      <path d="M 34.28125 27.484375 
Q 23.390625 27.484375 19.1875 25 
Q 14.984375 22.515625 14.984375 16.5 
Q 14.984375 11.71875 18.140625 8.90625 
Q 21.296875 6.109375 26.703125 6.109375 
Q 34.1875 6.109375 38.703125 11.40625 
Q 43.21875 16.703125 43.21875 25.484375 
L 43.21875 27.484375 
z
M 52.203125 31.203125 
L 52.203125 0 
L 43.21875 0 
L 43.21875 8.296875 
Q 40.140625 3.328125 35.546875 0.953125 
Q 30.953125 -1.421875 24.3125 -1.421875 
Q 15.921875 -1.421875 10.953125 3.296875 
Q 6 8.015625 6 15.921875 
Q 6 25.140625 12.171875 29.828125 
Q 18.359375 34.515625 30.609375 34.515625 
L 43.21875 34.515625 
L 43.21875 35.40625 
Q 43.21875 41.609375 39.140625 45 
Q 35.0625 48.390625 27.6875 48.390625 
Q 23 48.390625 18.546875 47.265625 
Q 14.109375 46.140625 10.015625 43.890625 
L 10.015625 52.203125 
Q 14.9375 54.109375 19.578125 55.046875 
Q 24.21875 56 28.609375 56 
Q 40.484375 56 46.34375 49.84375 
Q 52.203125 43.703125 52.203125 31.203125 
z
" id="DejaVuSans-97"/>
      <path d="M 18.109375 8.203125 
L 18.109375 -20.796875 
L 9.078125 -20.796875 
L 9.078125 54.6875 
L 18.109375 54.6875 
L 18.109375 46.390625 
Q 20.953125 51.265625 25.265625 53.625 
Q 29.59375 56 35.59375 56 
Q 45.5625 56 51.78125 48.09375 
Q 58.015625 40.1875 58.015625 27.296875 
Q 58.015625 14.40625 51.78125 6.484375 
Q 45.5625 -1.421875 35.59375 -1.421875 
Q 29.59375 -1.421875 25.265625 0.953125 
Q 20.953125 3.328125 18.109375 8.203125 
z
M 48.6875 27.296875 
Q 48.6875 37.203125 44.609375 42.84375 
Q 40.53125 48.484375 33.40625 48.484375 
Q 26.265625 48.484375 22.1875 42.84375 
Q 18.109375 37.203125 18.109375 27.296875 
Q 18.109375 17.390625 22.1875 11.75 
Q 26.265625 6.109375 33.40625 6.109375 
Q 40.53125 6.109375 44.609375 11.75 
Q 48.6875 17.390625 48.6875 27.296875 
z
" id="DejaVuSans-112"/>
      <path d="M 9.421875 75.984375 
L 18.40625 75.984375 
L 18.40625 0 
L 9.421875 0 
z
" id="DejaVuSans-108"/>
      <path d="M 4.203125 54.6875 
L 13.1875 54.6875 
L 24.421875 12.015625 
L 35.59375 54.6875 
L 46.1875 54.6875 
L 57.421875 12.015625 
L 68.609375 54.6875 
L 77.59375 54.6875 
L 63.28125 0 
L 52.6875 0 
L 40.921875 44.828125 
L 29.109375 0 
L 18.5 0 
z
" id="DejaVuSans-119"/>
      <path d="M 54.890625 33.015625 
L 54.890625 0 
L 45.90625 0 
L 45.90625 32.71875 
Q 45.90625 40.484375 42.875 44.328125 
Q 39.84375 48.1875 33.796875 48.1875 
Q 26.515625 48.1875 22.3125 43.546875 
Q 18.109375 38.921875 18.109375 30.90625 
L 18.109375 0 
L 9.078125 0 
L 9.078125 75.984375 
L 18.109375 75.984375 
L 18.109375 46.1875 
Q 21.34375 51.125 25.703125 53.5625 
Q 30.078125 56 35.796875 56 
Q 45.21875 56 50.046875 50.171875 
Q 54.890625 44.34375 54.890625 33.015625 
z
" id="DejaVuSans-104"/>
      <path d="M 19.1875 8.296875 
L 53.609375 8.296875 
L 53.609375 0 
L 7.328125 0 
L 7.328125 8.296875 
Q 12.9375 14.109375 22.625 23.890625 
Q 32.328125 33.6875 34.8125 36.53125 
Q 39.546875 41.84375 41.421875 45.53125 
Q 43.3125 49.21875 43.3125 52.78125 
Q 43.3125 58.59375 39.234375 62.25 
Q 35.15625 65.921875 28.609375 65.921875 
Q 23.96875 65.921875 18.8125 64.3125 
Q 13.671875 62.703125 7.8125 59.421875 
L 7.8125 69.390625 
Q 13.765625 71.78125 18.9375 73 
Q 24.125 74.21875 28.421875 74.21875 
Q 39.75 74.21875 46.484375 68.546875 
Q 53.21875 62.890625 53.21875 53.421875 
Q 53.21875 48.921875 51.53125 44.890625 
Q 49.859375 40.875 45.40625 35.40625 
Q 44.1875 33.984375 37.640625 27.21875 
Q 31.109375 20.453125 19.1875 8.296875 
z
" id="DejaVuSans-50"/>
      <path d="M 2.984375 54.6875 
L 12.5 54.6875 
L 29.59375 8.796875 
L 46.6875 54.6875 
L 56.203125 54.6875 
L 35.6875 0 
L 23.484375 0 
z
" id="DejaVuSans-118"/>
     </defs>
     <g transform="translate(97.593125 305.043875)scale(0.12 -0.12)">
      <use xlink:href="#DejaVuSans-100"/>
      <use x="63.476562" xlink:href="#DejaVuSans-105"/>
      <use x="91.259766" xlink:href="#DejaVuSans-102"/>
      <use x="126.464844" xlink:href="#DejaVuSans-102"/>
      <use x="161.669922" xlink:href="#DejaVuSans-101"/>
      <use x="223.193359" xlink:href="#DejaVuSans-114"/>
      <use x="264.275391" xlink:href="#DejaVuSans-101"/>
      <use x="325.798828" xlink:href="#DejaVuSans-110"/>
      <use x="389.177734" xlink:href="#DejaVuSans-116"/>
      <use x="428.386719" xlink:href="#DejaVuSans-32"/>
      <use x="460.173828" xlink:href="#DejaVuSans-110"/>
      <use x="523.552734" xlink:href="#DejaVuSans-117"/>
      <use x="586.931641" xlink:href="#DejaVuSans-109"/>
      <use x="684.34375" xlink:href="#DejaVuSans-98"/>
      <use x="747.820312" xlink:href="#DejaVuSans-101"/>
      <use x="809.34375" xlink:href="#DejaVuSans-114"/>
      <use x="850.457031" xlink:href="#DejaVuSans-32"/>
      <use x="882.244141" xlink:href="#DejaVuSans-111"/>
      <use x="943.425781" xlink:href="#DejaVuSans-102"/>
      <use x="978.630859" xlink:href="#DejaVuSans-32"/>
      <use x="1010.417969" xlink:href="#DejaVuSans-115"/>
      <use x="1062.517578" xlink:href="#DejaVuSans-97"/>
      <use x="1123.796875" xlink:href="#DejaVuSans-109"/>
      <use x="1221.208984" xlink:href="#DejaVuSans-112"/>
      <use x="1284.685547" xlink:href="#DejaVuSans-108"/>
      <use x="1312.46875" xlink:href="#DejaVuSans-101"/>
      <use x="1373.992188" xlink:href="#DejaVuSans-115"/>
      <use x="1426.091797" xlink:href="#DejaVuSans-32"/>
      <use x="1457.878906" xlink:href="#DejaVuSans-119"/>
      <use x="1539.666016" xlink:href="#DejaVuSans-105"/>
      <use x="1567.449219" xlink:href="#DejaVuSans-116"/>
      <use x="1606.658203" xlink:href="#DejaVuSans-104"/>
      <use x="1670.037109" xlink:href="#DejaVuSans-32"/>
      <use x="1701.824219" xlink:href="#DejaVuSans-50"/>
      <use x="1765.447266" xlink:href="#DejaVuSans-48"/>
      <use x="1829.070312" xlink:href="#DejaVuSans-32"/>
      <use x="1860.857422" xlink:href="#DejaVuSans-118"/>
      <use x="1920.037109" xlink:href="#DejaVuSans-97"/>
      <use x="1981.316406" xlink:href="#DejaVuSans-114"/>
      <use x="2022.429688" xlink:href="#DejaVuSans-105"/>
      <use x="2050.212891" xlink:href="#DejaVuSans-97"/>
      <use x="2111.492188" xlink:href="#DejaVuSans-98"/>
      <use x="2174.96875" xlink:href="#DejaVuSans-108"/>
      <use x="2202.751953" xlink:href="#DejaVuSans-101"/>
      <use x="2264.275391" xlink:href="#DejaVuSans-115"/>
     </g>
    </g>
   </g>
   <g id="matplotlib.axis_2">
    <g id="ytick_1">
     <g id="line2d_5">
      <defs>
       <path d="M 0 0 
L -3.5 0 
" id="md2bf816422" style="stroke:#000000;stroke-width:0.8;"/>
      </defs>
      <g>
       <use style="stroke:#000000;stroke-width:0.8;" x="58.01375" xlink:href="#md2bf816422" y="263.456"/>
      </g>
     </g>
     <g id="text_6">
      <!-- $10^{-2}$ -->
      <defs>
       <path d="M 10.59375 35.5 
L 73.1875 35.5 
L 73.1875 27.203125 
L 10.59375 27.203125 
z
" id="DejaVuSans-8722"/>
      </defs>
      <g transform="translate(22.81375 268.015062)scale(0.12 -0.12)">
       <use transform="translate(0 0.765625)" xlink:href="#DejaVuSans-49"/>
       <use transform="translate(63.623047 0.765625)" xlink:href="#DejaVuSans-48"/>
       <use transform="translate(128.203125 39.046875)scale(0.7)" xlink:href="#DejaVuSans-8722"/>
       <use transform="translate(186.855469 39.046875)scale(0.7)" xlink:href="#DejaVuSans-50"/>
      </g>
     </g>
    </g>
    <g id="ytick_2">
     <g id="line2d_6">
      <g>
       <use style="stroke:#000000;stroke-width:0.8;" x="58.01375" xlink:href="#md2bf816422" y="214.176"/>
      </g>
     </g>
     <g id="text_7">
      <!-- $10^{-1}$ -->
      <g transform="translate(22.81375 218.735062)scale(0.12 -0.12)">
       <use transform="translate(0 0.684375)" xlink:href="#DejaVuSans-49"/>
       <use transform="translate(63.623047 0.684375)" xlink:href="#DejaVuSans-48"/>
       <use transform="translate(128.203125 38.965625)scale(0.7)" xlink:href="#DejaVuSans-8722"/>
       <use transform="translate(186.855469 38.965625)scale(0.7)" xlink:href="#DejaVuSans-49"/>
      </g>
     </g>
    </g>
    <g id="ytick_3">
     <g id="line2d_7">
      <g>
       <use style="stroke:#000000;stroke-width:0.8;" x="58.01375" xlink:href="#md2bf816422" y="164.896"/>
      </g>
     </g>
     <g id="text_8">
      <!-- $10^0$ -->
      <g transform="translate(29.89375 169.455062)scale(0.12 -0.12)">
       <use transform="translate(0 0.765625)" xlink:href="#DejaVuSans-49"/>
       <use transform="translate(63.623047 0.765625)" xlink:href="#DejaVuSans-48"/>
       <use transform="translate(128.203125 39.046875)scale(0.7)" xlink:href="#DejaVuSans-48"/>
      </g>
     </g>
    </g>
    <g id="ytick_4">
     <g id="line2d_8">
      <g>
       <use style="stroke:#000000;stroke-width:0.8;" x="58.01375" xlink:href="#md2bf816422" y="115.616"/>
      </g>
     </g>
     <g id="text_9">
      <!-- $10^1$ -->
      <g transform="translate(29.89375 120.175062)scale(0.12 -0.12)">
       <use transform="translate(0 0.684375)" xlink:href="#DejaVuSans-49"/>
       <use transform="translate(63.623047 0.684375)" xlink:href="#DejaVuSans-48"/>
       <use transform="translate(128.203125 38.965625)scale(0.7)" xlink:href="#DejaVuSans-49"/>
      </g>
     </g>
    </g>
    <g id="ytick_5">
     <g id="line2d_9">
      <g>
       <use style="stroke:#000000;stroke-width:0.8;" x="58.01375" xlink:href="#md2bf816422" y="66.336"/>
      </g>
     </g>
     <g id="text_10">
      <!-- $10^2$ -->
      <g transform="translate(29.89375 70.895062)scale(0.12 -0.12)">
       <use transform="translate(0 0.765625)" xlink:href="#DejaVuSans-49"/>
       <use transform="translate(63.623047 0.765625)" xlink:href="#DejaVuSans-48"/>
       <use transform="translate(128.203125 39.046875)scale(0.7)" xlink:href="#DejaVuSans-50"/>
      </g>
     </g>
    </g>
    <g id="ytick_6">
     <g id="line2d_10">
      <g>
       <use style="stroke:#000000;stroke-width:0.8;" x="58.01375" xlink:href="#md2bf816422" y="17.056"/>
      </g>
     </g>
     <g id="text_11">
      <!-- $10^3$ -->
      <defs>
       <path d="M 40.578125 39.3125 
Q 47.65625 37.796875 51.625 33 
Q 55.609375 28.21875 55.609375 21.1875 
Q 55.609375 10.40625 48.1875 4.484375 
Q 40.765625 -1.421875 27.09375 -1.421875 
Q 22.515625 -1.421875 17.65625 -0.515625 
Q 12.796875 0.390625 7.625 2.203125 
L 7.625 11.71875 
Q 11.71875 9.328125 16.59375 8.109375 
Q 21.484375 6.890625 26.8125 6.890625 
Q 36.078125 6.890625 40.9375 10.546875 
Q 45.796875 14.203125 45.796875 21.1875 
Q 45.796875 27.640625 41.28125 31.265625 
Q 36.765625 34.90625 28.71875 34.90625 
L 20.21875 34.90625 
L 20.21875 43.015625 
L 29.109375 43.015625 
Q 36.375 43.015625 40.234375 45.921875 
Q 44.09375 48.828125 44.09375 54.296875 
Q 44.09375 59.90625 40.109375 62.90625 
Q 36.140625 65.921875 28.71875 65.921875 
Q 24.65625 65.921875 20.015625 65.03125 
Q 15.375 64.15625 9.8125 62.3125 
L 9.8125 71.09375 
Q 15.4375 72.65625 20.34375 73.4375 
Q 25.25 74.21875 29.59375 74.21875 
Q 40.828125 74.21875 47.359375 69.109375 
Q 53.90625 64.015625 53.90625 55.328125 
Q 53.90625 49.265625 50.4375 45.09375 
Q 46.96875 40.921875 40.578125 39.3125 
z
" id="DejaVuSans-51"/>
      </defs>
      <g transform="translate(29.89375 21.615062)scale(0.12 -0.12)">
       <use transform="translate(0 0.765625)" xlink:href="#DejaVuSans-49"/>
       <use transform="translate(63.623047 0.765625)" xlink:href="#DejaVuSans-48"/>
       <use transform="translate(128.203125 39.046875)scale(0.7)" xlink:href="#DejaVuSans-51"/>
      </g>
     </g>
    </g>
    <g id="text_12">
     <!-- seconds spent -->
     <defs>
      <path d="M 48.78125 52.59375 
L 48.78125 44.1875 
Q 44.96875 46.296875 41.140625 47.34375 
Q 37.3125 48.390625 33.40625 48.390625 
Q 24.65625 48.390625 19.8125 42.84375 
Q 14.984375 37.3125 14.984375 27.296875 
Q 14.984375 17.28125 19.8125 11.734375 
Q 24.65625 6.203125 33.40625 6.203125 
Q 37.3125 6.203125 41.140625 7.25 
Q 44.96875 8.296875 48.78125 10.40625 
L 48.78125 2.09375 
Q 45.015625 0.34375 40.984375 -0.53125 
Q 36.96875 -1.421875 32.421875 -1.421875 
Q 20.0625 -1.421875 12.78125 6.34375 
Q 5.515625 14.109375 5.515625 27.296875 
Q 5.515625 40.671875 12.859375 48.328125 
Q 20.21875 56 33.015625 56 
Q 37.15625 56 41.109375 55.140625 
Q 45.0625 54.296875 48.78125 52.59375 
z
" id="DejaVuSans-99"/>
     </defs>
     <g transform="translate(16.318125 183.469125)rotate(-90)scale(0.12 -0.12)">
      <use xlink:href="#DejaVuSans-115"/>
      <use x="52.099609" xlink:href="#DejaVuSans-101"/>
      <use x="113.623047" xlink:href="#DejaVuSans-99"/>
      <use x="168.603516" xlink:href="#DejaVuSans-111"/>
      <use x="229.785156" xlink:href="#DejaVuSans-110"/>
      <use x="293.164062" xlink:href="#DejaVuSans-100"/>
      <use x="356.640625" xlink:href="#DejaVuSans-115"/>
      <use x="408.740234" xlink:href="#DejaVuSans-32"/>
      <use x="440.527344" xlink:href="#DejaVuSans-115"/>
      <use x="492.626953" xlink:href="#DejaVuSans-112"/>
      <use x="556.103516" xlink:href="#DejaVuSans-101"/>
      <use x="617.626953" xlink:href="#DejaVuSans-110"/>
      <use x="681.005859" xlink:href="#DejaVuSans-116"/>
     </g>
    </g>
   </g>
   <g id="patch_3">
    <path d="M 58.01375 273.312 
L 58.01375 7.2 
" style="fill:none;stroke:#000000;stroke-linecap:square;stroke-linejoin:miter;stroke-width:0.8;"/>
   </g>
   <g id="patch_4">
    <path d="M 415.13375 273.312 
L 415.13375 7.2 
" style="fill:none;stroke:#000000;stroke-linecap:square;stroke-linejoin:miter;stroke-width:0.8;"/>
   </g>
   <g id="patch_5">
    <path d="M 58.01375 273.312 
L 415.13375 273.312 
" style="fill:none;stroke:#000000;stroke-linecap:square;stroke-linejoin:miter;stroke-width:0.8;"/>
   </g>
   <g id="patch_6">
    <path d="M 58.01375 7.2 
L 415.13375 7.2 
" style="fill:none;stroke:#000000;stroke-linecap:square;stroke-linejoin:miter;stroke-width:0.8;"/>
   </g>
   <g id="PathCollection_1">
    <defs>
     <path d="M 0 3.162278 
C 0.838646 3.162278 1.643056 2.82908 2.236068 2.236068 
C 2.82908 1.643056 3.162278 0.838646 3.162278 0 
C 3.162278 -0.838646 2.82908 -1.643056 2.236068 -2.236068 
C 1.643056 -2.82908 0.838646 -3.162278 0 -3.162278 
C -0.838646 -3.162278 -1.643056 -2.82908 -2.236068 -2.236068 
C -2.82908 -1.643056 -3.162278 -0.838646 -3.162278 0 
C -3.162278 0.838646 -2.82908 1.643056 -2.236068 2.236068 
C -1.643056 2.82908 -0.838646 3.162278 0 3.162278 
z
" id="m34a8a70553" style="stroke:#fe817d;"/>
    </defs>
    <g clip-path="url(#p46364fad63)">
     <use style="fill:#ffffff;stroke:#fe817d;" x="80.33375" xlink:href="#m34a8a70553" y="221.84717"/>
    </g>
   </g>
   <g id="PathCollection_2">
    <defs>
     <path d="M 0 3.162278 
C 0.838646 3.162278 1.643056 2.82908 2.236068 2.236068 
C 2.82908 1.643056 3.162278 0.838646 3.162278 0 
C 3.162278 -0.838646 2.82908 -1.643056 2.236068 -2.236068 
C 1.643056 -2.82908 0.838646 -3.162278 0 -3.162278 
C -0.838646 -3.162278 -1.643056 -2.82908 -2.236068 -2.236068 
C -2.82908 -1.643056 -3.162278 -0.838646 -3.162278 0 
C -3.162278 0.838646 -2.82908 1.643056 -2.236068 2.236068 
C -1.643056 2.82908 -0.838646 3.162278 0 3.162278 
z
" id="m95644b69c7" style="stroke:#81b8df;"/>
    </defs>
    <g clip-path="url(#p46364fad63)">
     <use style="fill:#ffffff;stroke:#81b8df;" x="124.97375" xlink:href="#m95644b69c7" y="153.020225"/>
    </g>
   </g>
   <g id="PathCollection_3">
    <g clip-path="url(#p46364fad63)">
     <use style="fill:#ffffff;stroke:#fe817d;" x="169.61375" xlink:href="#m34a8a70553" y="189.789791"/>
    </g>
   </g>
   <g id="PathCollection_4">
    <g clip-path="url(#p46364fad63)">
     <use style="fill:#ffffff;stroke:#81b8df;" x="214.25375" xlink:href="#m95644b69c7" y="120.86081"/>
    </g>
   </g>
   <g id="PathCollection_5">
    <g clip-path="url(#p46364fad63)">
     <use style="fill:#ffffff;stroke:#fe817d;" x="258.89375" xlink:href="#m34a8a70553" y="125.836221"/>
    </g>
   </g>
   <g id="PathCollection_6">
    <g clip-path="url(#p46364fad63)">
     <use style="fill:#ffffff;stroke:#81b8df;" x="303.53375" xlink:href="#m95644b69c7" y="57.869951"/>
    </g>
   </g>
   <g id="PathCollection_7">
    <g clip-path="url(#p46364fad63)">
     <use style="fill:#ffffff;stroke:#fe817d;" x="348.17375" xlink:href="#m34a8a70553" y="102.613091"/>
    </g>
   </g>
   <g id="PathCollection_8">
    <g clip-path="url(#p46364fad63)">
     <use style="fill:#ffffff;stroke:#81b8df;" x="392.81375" xlink:href="#m95644b69c7" y="34.922433"/>
    </g>
   </g>
   <g id="legend_1">
    <g id="patch_7">
     <path d="M 66.41375 52.0275 
L 175.765625 52.0275 
Q 178.165625 52.0275 178.165625 49.6275 
L 178.165625 15.6 
Q 178.165625 13.2 175.765625 13.2 
L 66.41375 13.2 
Q 64.01375 13.2 64.01375 15.6 
L 64.01375 49.6275 
Q 64.01375 52.0275 66.41375 52.0275 
z
" style="fill:#ffffff;opacity:0.8;stroke:#cccccc;stroke-linejoin:miter;"/>
    </g>
    <g id="patch_8">
     <path d="M 68.81375 27.118125 
L 92.81375 27.118125 
L 92.81375 18.718125 
L 68.81375 18.718125 
z
" style="fill:#fcbbae;stroke:#fe817d;stroke-linejoin:miter;"/>
    </g>
    <g id="text_13">
     <!-- customized -->
     <defs>
      <path d="M 5.515625 54.6875 
L 48.1875 54.6875 
L 48.1875 46.484375 
L 14.40625 7.171875 
L 48.1875 7.171875 
L 48.1875 0 
L 4.296875 0 
L 4.296875 8.203125 
L 38.09375 47.515625 
L 5.515625 47.515625 
z
" id="DejaVuSans-122"/>
     </defs>
     <g transform="translate(102.41375 27.118125)scale(0.12 -0.12)">
      <use xlink:href="#DejaVuSans-99"/>
      <use x="54.980469" xlink:href="#DejaVuSans-117"/>
      <use x="118.359375" xlink:href="#DejaVuSans-115"/>
      <use x="170.458984" xlink:href="#DejaVuSans-116"/>
      <use x="209.667969" xlink:href="#DejaVuSans-111"/>
      <use x="270.849609" xlink:href="#DejaVuSans-109"/>
      <use x="368.261719" xlink:href="#DejaVuSans-105"/>
      <use x="396.044922" xlink:href="#DejaVuSans-122"/>
      <use x="448.535156" xlink:href="#DejaVuSans-101"/>
      <use x="510.058594" xlink:href="#DejaVuSans-100"/>
     </g>
    </g>
    <g id="patch_9">
     <path d="M 68.81375 44.731875 
L 92.81375 44.731875 
L 92.81375 36.331875 
L 68.81375 36.331875 
z
" style="fill:#b1ccdf;stroke:#81b8df;stroke-linejoin:miter;"/>
    </g>
    <g id="text_14">
     <!-- numpy.sum -->
     <defs>
      <path d="M 32.171875 -5.078125 
Q 28.375 -14.84375 24.75 -17.8125 
Q 21.140625 -20.796875 15.09375 -20.796875 
L 7.90625 -20.796875 
L 7.90625 -13.28125 
L 13.1875 -13.28125 
Q 16.890625 -13.28125 18.9375 -11.515625 
Q 21 -9.765625 23.484375 -3.21875 
L 25.09375 0.875 
L 2.984375 54.6875 
L 12.5 54.6875 
L 29.59375 11.921875 
L 46.6875 54.6875 
L 56.203125 54.6875 
z
" id="DejaVuSans-121"/>
      <path d="M 10.6875 12.40625 
L 21 12.40625 
L 21 0 
L 10.6875 0 
z
" id="DejaVuSans-46"/>
     </defs>
     <g transform="translate(102.41375 44.731875)scale(0.12 -0.12)">
      <use xlink:href="#DejaVuSans-110"/>
      <use x="63.378906" xlink:href="#DejaVuSans-117"/>
      <use x="126.757812" xlink:href="#DejaVuSans-109"/>
      <use x="224.169922" xlink:href="#DejaVuSans-112"/>
      <use x="287.646484" xlink:href="#DejaVuSans-121"/>
      <use x="346.607422" xlink:href="#DejaVuSans-46"/>
      <use x="378.394531" xlink:href="#DejaVuSans-115"/>
      <use x="430.494141" xlink:href="#DejaVuSans-117"/>
      <use x="493.873047" xlink:href="#DejaVuSans-109"/>
     </g>
    </g>
   </g>
  </g>
 </g>
 <defs>
  <clipPath id="p46364fad63">
   <rect height="266.112" width="357.12" x="58.01375" y="7.2"/>
  </clipPath>
 </defs>
</svg>
